<svg xmlns="http://www.w3.org/2000/svg" version="1.1" style="font-family:Lato, &#x27;Helvetica Neue&#x27;, Helvetica, Arial, sans-serif;font-size:18px;background-color:white;text-rendering:geometricPrecision;-webkit-font-smoothing:antialiased" width="850" height="600" viewBox="0 0 850 600"><g class="HeaderView"><g transform="translate(774, 15) scale(0.29)"><svg className="owidLog" width="210" height="120" viewBox="0 0 210 120" fill="none" xmlns="http://www.w3.org/2000/svg">
<g clip-path="url(#clip0)">
  <path d="M0 0h210v107.89H0V0z" fill="#002147" />
  <path
    d="M40.98 32.25c0 2.36-.38 4.53-1.12 6.51a14.26 14.26 0 0 1-8.1 8.4c-1.9.78-4.02 1.17-6.34 1.17-2.31 0-4.42-.39-6.33-1.17a14.31 14.31 0 0 1-8.08-8.4 18.29 18.29 0 0 1-1.12-6.51c0-2.36.38-4.53 1.12-6.5.75-1.97 1.8-3.67 3.17-5.1a14.32 14.32 0 0 1 4.9-3.34c1.92-.8 4.03-1.19 6.34-1.19 2.32 0 4.43.4 6.34 1.19 1.92.8 3.56 1.9 4.93 3.34a14.87 14.87 0 0 1 3.17 5.1 18.1 18.1 0 0 1 1.12 6.5zm-4.38 0c0-1.94-.26-3.68-.8-5.22a10.91 10.91 0 0 0-2.24-3.89 9.68 9.68 0 0 0-3.52-2.46 11.95 11.95 0 0 0-4.62-.86c-1.68 0-3.21.28-4.6.86a9.88 9.88 0 0 0-3.54 2.46 10.91 10.91 0 0 0-2.24 3.9c-.53 1.53-.8 3.27-.8 5.2 0 1.94.27 3.68.8 5.22a11.17 11.17 0 0 0 2.24 3.9 10.01 10.01 0 0 0 3.55 2.44c1.38.56 2.9.83 4.6.83s3.24-.27 4.61-.83a9.8 9.8 0 0 0 3.52-2.44 11.17 11.17 0 0 0 2.25-3.9c.53-1.54.8-3.28.8-5.21zm26.22-6.54V48H60.5c-.56 0-.9-.27-1.05-.81l-.31-2.4a12.45 12.45 0 0 1-3.26 2.6c-1.2.64-2.58.96-4.13.96-1.22 0-2.3-.2-3.24-.6a6.52 6.52 0 0 1-2.33-1.7 7.37 7.37 0 0 1-1.43-2.67c-.3-1.04-.46-2.2-.46-3.45V25.7h3.91v14.22c0 1.68.38 2.99 1.15 3.91.77.93 1.96 1.39 3.54 1.39 1.16 0 2.24-.27 3.23-.82a10.42 10.42 0 0 0 2.8-2.28V25.7h3.91zm8.61 4.47a9.94 9.94 0 0 1 2.6-3.56 5.64 5.64 0 0 1 3.76-1.3c.47 0 .92.05 1.34.15.44.1.83.27 1.17.49l-.3 2.92c-.09.37-.3.55-.66.55-.2 0-.5-.04-.9-.13a6.21 6.21 0 0 0-3.24.18 4.23 4.23 0 0 0-1.47.92c-.42.4-.81.9-1.17 1.5-.33.58-.64 1.26-.92 2.02V48H67.7V25.71h2.25c.42 0 .72.08.88.25.16.16.27.44.33.83l.26 3.39zm61.16-13.7L122.75 48h-3.82l-7.99-24.05a21.95 21.95 0 0 1-.42-1.58 38.36 38.36 0 0 1-.44 1.58L102.05 48h-3.83L88.4 16.47h3.54c.38 0 .7.1.95.29.26.2.43.43.5.73l6.52 21.9.28 1.28.29 1.46.3-1.46.38-1.27 7.41-21.91c.1-.25.26-.48.51-.69.27-.22.58-.33.95-.33h1.23c.38 0 .69.1.92.29a1.77 1.77 0 0 1 .53.73l7.4 21.9a28.4 28.4 0 0 1 .68 2.62 29.52 29.52 0 0 1 .52-2.61l6.54-21.91a1.31 1.31 0 0 1 .48-.7c.27-.21.58-.32.95-.32h3.32zm9.35 8.88c1.63 0 3.1.27 4.4.82a9.43 9.43 0 0 1 5.46 5.94c.5 1.4.74 2.98.74 4.73 0 1.76-.25 3.34-.74 4.75a9.43 9.43 0 0 1-5.46 5.92c-1.3.52-2.77.79-4.4.79-1.64 0-3.12-.27-4.44-.8a9.42 9.42 0 0 1-3.35-2.3c-.92-1-1.63-2.2-2.13-3.61-.49-1.41-.73-3-.73-4.75s.24-3.33.73-4.73c.5-1.43 1.2-2.64 2.13-3.63.93-1 2.04-1.77 3.35-2.31 1.32-.55 2.8-.82 4.44-.82zm0 19.89c2.2 0 3.84-.73 4.93-2.2 1.08-1.48 1.63-3.54 1.63-6.18 0-2.66-.55-4.72-1.63-6.2-1.09-1.49-2.73-2.23-4.93-2.23-1.12 0-2.09.2-2.93.57a5.71 5.71 0 0 0-2.06 1.65c-.55.72-.96 1.61-1.24 2.67-.26 1.04-.4 2.22-.4 3.54 0 2.64.55 4.7 1.64 6.18 1.1 1.47 2.76 2.2 4.99 2.2zm17.97-15.07a9.94 9.94 0 0 1 2.6-3.56 5.64 5.64 0 0 1 3.76-1.3c.47 0 .91.05 1.34.15.44.1.83.27 1.16.49l-.28 2.92c-.09.37-.31.55-.66.55-.2 0-.5-.04-.9-.13a6.2 6.2 0 0 0-3.24.18 4.23 4.23 0 0 0-1.47.92c-.43.4-.82.9-1.17 1.5a13.1 13.1 0 0 0-.92 2.02V48h-3.94V25.71h2.24c.43 0 .72.08.88.25.17.16.28.44.33.83l.27 3.39zm15.04-14.59V48h-3.92V15.6h3.92zm19.55 15.43a6.22 6.22 0 0 0-2.38-2.05 6.7 6.7 0 0 0-2.86-.6c-2.07 0-3.66.75-4.77 2.23-1.12 1.48-1.68 3.6-1.68 6.33 0 1.46.13 2.7.38 3.74a7.29 7.29 0 0 0 1.1 2.56 4.35 4.35 0 0 0 1.78 1.45c.7.3 1.5.46 2.4.46 1.29 0 2.41-.3 3.36-.88a9.6 9.6 0 0 0 2.67-2.49V31.02zm3.91-15.43V48h-2.33c-.56 0-.9-.27-1.06-.81l-.35-2.71a12.13 12.13 0 0 1-3.25 2.77 8.28 8.28 0 0 1-4.23 1.06 7.31 7.31 0 0 1-6.14-2.9c-.73-.96-1.3-2.15-1.69-3.57a18.35 18.35 0 0 1 .07-9.48 11.29 11.29 0 0 1 1.89-3.7 8.7 8.7 0 0 1 7.06-3.34 7.96 7.96 0 0 1 6.12 2.62V15.59h3.91zM46.61 70.71V93H42.7V70.71h3.91zm.84-7c0 .39-.08.75-.24 1.09-.15.32-.35.61-.62.88-.25.25-.55.44-.9.59a2.67 2.67 0 0 1-2.16 0 2.9 2.9 0 0 1-1.45-1.47 2.67 2.67 0 0 1 0-2.16c.15-.35.35-.65.6-.9.25-.27.53-.47.85-.62a2.67 2.67 0 0 1 2.16 0c.35.15.65.35.9.62.27.25.47.55.62.9.16.34.24.7.24 1.08zm7.97 10.24c.49-.54 1-1.04 1.54-1.48a9.85 9.85 0 0 1 3.66-1.84 8.96 8.96 0 0 1 5.43.35c.94.4 1.72.97 2.33 1.71.63.74 1.11 1.62 1.43 2.67.32 1.04.49 2.19.49 3.45V93h-3.94V78.81c0-1.69-.4-3-1.17-3.92-.76-.93-1.93-1.4-3.5-1.4-1.15 0-2.24.27-3.25.83-1 .56-1.92 1.31-2.77 2.27V93h-3.94V70.71h2.35c.56 0 .9.28 1.04.82l.3 2.42zm57.7 3.3c0 2.36-.37 4.5-1.11 6.44a14.3 14.3 0 0 1-3.17 4.98c-1.37 1.37-3 2.45-4.93 3.2-1.9.76-4.02 1.13-6.33 1.13H85.8V61.47h11.77c2.31 0 4.42.39 6.33 1.15a13.8 13.8 0 0 1 8.1 8.18 17.75 17.75 0 0 1 1.12 6.45zm-4.37 0c0-1.94-.26-3.67-.8-5.2a10.94 10.94 0 0 0-2.23-3.87 9.57 9.57 0 0 0-3.53-2.42 12.23 12.23 0 0 0-4.61-.83h-7.5v24.62h7.5c1.7 0 3.24-.28 4.61-.84a9.7 9.7 0 0 0 3.53-2.4 10.94 10.94 0 0 0 2.24-3.87c.53-1.53.8-3.26.8-5.2zm19.8 5.72c-1.8.06-3.34.2-4.62.44-1.26.22-2.3.51-3.1.88-.8.36-1.37.8-1.74 1.3-.35.5-.53 1.05-.53 1.67 0 .58.1 1.1.3 1.52a3 3 0 0 0 .76 1.05c.34.27.73.46 1.17.6a6.13 6.13 0 0 0 1.45.17 7.28 7.28 0 0 0 3.5-.81 11.95 11.95 0 0 0 2.82-2.2v-4.62zm-12.65-9.11a12.73 12.73 0 0 1 3.98-2.66c1.43-.59 3-.88 4.73-.88 1.25 0 2.36.2 3.33.61a6.81 6.81 0 0 1 3.94 4.38c.33 1.04.5 2.19.5 3.43V93h-1.74a1.8 1.8 0 0 1-.88-.18c-.2-.13-.36-.38-.48-.74l-.44-2.12-1.72 1.46a9.48 9.48 0 0 1-3.74 1.7c-.69.15-1.46.23-2.3.23-.87 0-1.69-.12-2.45-.35a5.34 5.34 0 0 1-3.34-2.93 6.64 6.64 0 0 1-.49-2.64c0-.88.25-1.72.73-2.53a6.33 6.33 0 0 1 2.35-2.17c1.09-.63 2.5-1.15 4.25-1.54 1.75-.41 3.89-.65 6.42-.7v-1.75c0-1.73-.37-3.03-1.12-3.91-.75-.9-1.84-1.34-3.28-1.34-.97 0-1.78.12-2.44.37-.64.23-1.2.5-1.7.81l-1.23.82c-.33.23-.67.35-1 .35-.27 0-.5-.07-.69-.2a2.1 2.1 0 0 1-.48-.53l-.7-1.25zm27.67 19.5c-1.76 0-3.12-.5-4.07-1.48-.94-.98-1.41-2.4-1.41-4.25V74h-2.68a.9.9 0 0 1-.6-.2c-.16-.14-.24-.36-.24-.66v-1.56l3.65-.46.9-6.89c.05-.22.14-.4.29-.52a.88.88 0 0 1 .62-.22H142v7.67h6.44V74H142v13.38c0 .94.22 1.63.68 2.09.45.45 1.04.68 1.76.68a3.21 3.21 0 0 0 1.85-.53l.55-.35c.16-.12.3-.18.41-.18.2 0 .4.13.55.38l1.15 1.87a7.45 7.45 0 0 1-2.44 1.5 8.53 8.53 0 0 1-2.95.52zm19.68-10.4c-1.8.07-3.34.21-4.62.45-1.26.22-2.3.51-3.1.88-.8.36-1.37.8-1.74 1.3-.35.5-.53 1.05-.53 1.67 0 .58.1 1.1.3 1.52a2.9 2.9 0 0 0 .76 1.05c.34.27.73.46 1.17.6a6.13 6.13 0 0 0 1.45.17 7.3 7.3 0 0 0 3.5-.81 12.04 12.04 0 0 0 2.82-2.2v-4.62zm-12.65-9.1a12.72 12.72 0 0 1 3.99-2.66c1.42-.59 3-.88 4.72-.88 1.25 0 2.36.2 3.33.61a6.81 6.81 0 0 1 3.94 4.38c.33 1.04.5 2.19.5 3.43V93h-1.74a1.8 1.8 0 0 1-.88-.18c-.2-.13-.36-.38-.48-.74l-.44-2.12-1.72 1.46a9.48 9.48 0 0 1-3.74 1.7c-.69.15-1.46.23-2.3.23-.87 0-1.69-.12-2.45-.35a5.33 5.33 0 0 1-3.34-2.93 6.62 6.62 0 0 1-.49-2.64c0-.88.25-1.72.73-2.53a6.33 6.33 0 0 1 2.35-2.17c1.09-.63 2.5-1.15 4.25-1.54 1.74-.41 3.89-.65 6.42-.7v-1.75c0-1.73-.37-3.03-1.12-3.91-.75-.9-1.84-1.34-3.28-1.34-.97 0-1.78.12-2.44.37-.64.23-1.2.5-1.7.81l-1.22.82c-.34.23-.68.35-1.02.35-.26 0-.49-.07-.68-.2a1.88 1.88 0 0 1-.48-.53l-.7-1.25zM40.98 32.25c0 2.36-.38 4.53-1.12 6.51a14.26 14.26 0 0 1-8.1 8.4c-1.9.78-4.02 1.17-6.34 1.17-2.31 0-4.42-.39-6.33-1.17a14.31 14.31 0 0 1-8.08-8.4 18.29 18.29 0 0 1-1.12-6.51c0-2.36.38-4.53 1.12-6.5.75-1.97 1.8-3.67 3.17-5.1a14.32 14.32 0 0 1 4.9-3.34c1.92-.8 4.03-1.19 6.34-1.19 2.32 0 4.43.4 6.34 1.19 1.92.8 3.56 1.9 4.93 3.34a14.87 14.87 0 0 1 3.17 5.1 18.1 18.1 0 0 1 1.12 6.5zm-4.38 0c0-1.94-.26-3.68-.8-5.22a10.91 10.91 0 0 0-2.24-3.89 9.68 9.68 0 0 0-3.52-2.46 11.95 11.95 0 0 0-4.62-.86c-1.68 0-3.21.28-4.6.86a9.88 9.88 0 0 0-3.54 2.46 10.91 10.91 0 0 0-2.24 3.9c-.53 1.53-.8 3.27-.8 5.2 0 1.94.27 3.68.8 5.22a11.17 11.17 0 0 0 2.24 3.9 10.01 10.01 0 0 0 3.55 2.44c1.38.56 2.9.83 4.6.83s3.24-.27 4.61-.83a9.8 9.8 0 0 0 3.52-2.44 11.17 11.17 0 0 0 2.25-3.9c.53-1.54.8-3.28.8-5.21zm26.22-6.54V48H60.5c-.56 0-.9-.27-1.05-.81l-.31-2.4a12.45 12.45 0 0 1-3.26 2.6c-1.2.64-2.58.96-4.13.96-1.22 0-2.3-.2-3.24-.6a6.52 6.52 0 0 1-2.33-1.7 7.37 7.37 0 0 1-1.43-2.67c-.3-1.04-.46-2.2-.46-3.45V25.7h3.91v14.22c0 1.68.38 2.99 1.15 3.91.77.93 1.96 1.39 3.54 1.39 1.16 0 2.24-.27 3.23-.82a10.42 10.42 0 0 0 2.8-2.28V25.7h3.91zm8.61 4.47a9.94 9.94 0 0 1 2.6-3.56 5.64 5.64 0 0 1 3.76-1.3c.47 0 .92.05 1.34.15.44.1.83.27 1.17.49l-.3 2.92c-.09.37-.3.55-.66.55-.2 0-.5-.04-.9-.13a6.21 6.21 0 0 0-3.24.18 4.23 4.23 0 0 0-1.47.92c-.42.4-.81.9-1.17 1.5-.33.58-.64 1.26-.92 2.02V48H67.7V25.71h2.25c.42 0 .72.08.88.25.16.16.27.44.33.83l.26 3.39zm61.16-13.7L122.75 48h-3.82l-7.99-24.05a21.95 21.95 0 0 1-.42-1.58 38.36 38.36 0 0 1-.44 1.58L102.05 48h-3.83L88.4 16.47h3.54c.38 0 .7.1.95.29.26.2.43.43.5.73l6.52 21.9.28 1.28.29 1.46.3-1.46.38-1.27 7.41-21.91c.1-.25.26-.48.51-.69.27-.22.58-.33.95-.33h1.23c.38 0 .69.1.92.29a1.77 1.77 0 0 1 .53.73l7.4 21.9a28.4 28.4 0 0 1 .68 2.62 29.52 29.52 0 0 1 .52-2.61l6.54-21.91a1.31 1.31 0 0 1 .48-.7c.27-.21.58-.32.95-.32h3.32zm9.35 8.88c1.63 0 3.1.27 4.4.82a9.43 9.43 0 0 1 5.46 5.94c.5 1.4.74 2.98.74 4.73 0 1.76-.25 3.34-.74 4.75a9.43 9.43 0 0 1-5.46 5.92c-1.3.52-2.77.79-4.4.79-1.64 0-3.12-.27-4.44-.8a9.42 9.42 0 0 1-3.35-2.3c-.92-1-1.63-2.2-2.13-3.61-.49-1.41-.73-3-.73-4.75s.24-3.33.73-4.73c.5-1.43 1.2-2.64 2.13-3.63.93-1 2.04-1.77 3.35-2.31 1.32-.55 2.8-.82 4.44-.82zm0 19.89c2.2 0 3.84-.73 4.93-2.2 1.08-1.48 1.63-3.54 1.63-6.18 0-2.66-.55-4.72-1.63-6.2-1.09-1.49-2.73-2.23-4.93-2.23-1.12 0-2.09.2-2.93.57a5.71 5.71 0 0 0-2.06 1.65c-.55.72-.96 1.61-1.24 2.67-.26 1.04-.4 2.22-.4 3.54 0 2.64.55 4.7 1.64 6.18 1.1 1.47 2.76 2.2 4.99 2.2zm17.97-15.07a9.94 9.94 0 0 1 2.6-3.56 5.64 5.64 0 0 1 3.76-1.3c.47 0 .91.05 1.34.15.44.1.83.27 1.16.49l-.28 2.92c-.09.37-.31.55-.66.55-.2 0-.5-.04-.9-.13a6.2 6.2 0 0 0-3.24.18 4.23 4.23 0 0 0-1.47.92c-.43.4-.82.9-1.17 1.5a13.1 13.1 0 0 0-.92 2.02V48h-3.94V25.71h2.24c.43 0 .72.08.88.25.17.16.28.44.33.83l.27 3.39zm15.04-14.59V48h-3.92V15.6h3.92zm19.55 15.43a6.22 6.22 0 0 0-2.38-2.05 6.7 6.7 0 0 0-2.86-.6c-2.07 0-3.66.75-4.77 2.23-1.12 1.48-1.68 3.6-1.68 6.33 0 1.46.13 2.7.38 3.74a7.29 7.29 0 0 0 1.1 2.56 4.35 4.35 0 0 0 1.78 1.45c.7.3 1.5.46 2.4.46 1.29 0 2.41-.3 3.36-.88a9.6 9.6 0 0 0 2.67-2.49V31.02zm3.91-15.43V48h-2.33c-.56 0-.9-.27-1.06-.81l-.35-2.71a12.13 12.13 0 0 1-3.25 2.77 8.28 8.28 0 0 1-4.23 1.06 7.31 7.31 0 0 1-6.14-2.9c-.73-.96-1.3-2.15-1.69-3.57a18.35 18.35 0 0 1 .07-9.48 11.29 11.29 0 0 1 1.89-3.7 8.7 8.7 0 0 1 7.06-3.34 7.96 7.96 0 0 1 6.12 2.62V15.59h3.91zM46.61 70.71V93H42.7V70.71h3.91zm.84-7c0 .39-.08.75-.24 1.09-.15.32-.35.61-.62.88-.25.25-.55.44-.9.59a2.67 2.67 0 0 1-2.16 0 2.9 2.9 0 0 1-1.45-1.47 2.67 2.67 0 0 1 0-2.16c.15-.35.35-.65.6-.9.25-.27.53-.47.85-.62a2.67 2.67 0 0 1 2.16 0c.35.15.65.35.9.62.27.25.47.55.62.9.16.34.24.7.24 1.08zm7.97 10.24c.49-.54 1-1.04 1.54-1.48a9.85 9.85 0 0 1 3.66-1.84 8.96 8.96 0 0 1 5.43.35c.94.4 1.72.97 2.33 1.71.63.74 1.11 1.62 1.43 2.67.32 1.04.49 2.19.49 3.45V93h-3.94V78.81c0-1.69-.4-3-1.17-3.92-.76-.93-1.93-1.4-3.5-1.4-1.15 0-2.24.27-3.25.83-1 .56-1.92 1.31-2.77 2.27V93h-3.94V70.71h2.35c.56 0 .9.28 1.04.82l.3 2.42zm57.7 3.3c0 2.36-.37 4.5-1.11 6.44a14.3 14.3 0 0 1-3.17 4.98c-1.37 1.37-3 2.45-4.93 3.2-1.9.76-4.02 1.13-6.33 1.13H85.8V61.47h11.77c2.31 0 4.42.39 6.33 1.15a13.8 13.8 0 0 1 8.1 8.18 17.75 17.75 0 0 1 1.12 6.45zm-4.37 0c0-1.94-.26-3.67-.8-5.2a10.94 10.94 0 0 0-2.23-3.87 9.57 9.57 0 0 0-3.53-2.42 12.23 12.23 0 0 0-4.61-.83h-7.5v24.62h7.5c1.7 0 3.24-.28 4.61-.84a9.7 9.7 0 0 0 3.53-2.4 10.94 10.94 0 0 0 2.24-3.87c.53-1.53.8-3.26.8-5.2zm19.8 5.72c-1.8.06-3.34.2-4.62.44-1.26.22-2.3.51-3.1.88-.8.36-1.37.8-1.74 1.3-.35.5-.53 1.05-.53 1.67 0 .58.1 1.1.3 1.52a3 3 0 0 0 .76 1.05c.34.27.73.46 1.17.6a6.13 6.13 0 0 0 1.45.17 7.28 7.28 0 0 0 3.5-.81 11.95 11.95 0 0 0 2.82-2.2v-4.62zm-12.65-9.11a12.73 12.73 0 0 1 3.98-2.66c1.43-.59 3-.88 4.73-.88 1.25 0 2.36.2 3.33.61a6.81 6.81 0 0 1 3.94 4.38c.33 1.04.5 2.19.5 3.43V93h-1.74a1.8 1.8 0 0 1-.88-.18c-.2-.13-.36-.38-.48-.74l-.44-2.12-1.72 1.46a9.48 9.48 0 0 1-3.74 1.7c-.69.15-1.46.23-2.3.23-.87 0-1.69-.12-2.45-.35a5.34 5.34 0 0 1-3.34-2.93 6.64 6.64 0 0 1-.49-2.64c0-.88.25-1.72.73-2.53a6.33 6.33 0 0 1 2.35-2.17c1.09-.63 2.5-1.15 4.25-1.54 1.75-.41 3.89-.65 6.42-.7v-1.75c0-1.73-.37-3.03-1.12-3.91-.75-.9-1.84-1.34-3.28-1.34-.97 0-1.78.12-2.44.37-.64.23-1.2.5-1.7.81l-1.23.82c-.33.23-.67.35-1 .35-.27 0-.5-.07-.69-.2a2.1 2.1 0 0 1-.48-.53l-.7-1.25zm27.67 19.5c-1.76 0-3.12-.5-4.07-1.48-.94-.98-1.41-2.4-1.41-4.25V74h-2.68a.9.9 0 0 1-.6-.2c-.16-.14-.24-.36-.24-.66v-1.56l3.65-.46.9-6.89c.05-.22.14-.4.29-.52a.88.88 0 0 1 .62-.22H142v7.67h6.44V74H142v13.38c0 .94.22 1.63.68 2.09.45.45 1.04.68 1.76.68a3.21 3.21 0 0 0 1.85-.53l.55-.35c.16-.12.3-.18.41-.18.2 0 .4.13.55.38l1.15 1.87a7.45 7.45 0 0 1-2.44 1.5 8.53 8.53 0 0 1-2.95.52zm19.68-10.4c-1.8.07-3.34.21-4.62.45-1.26.22-2.3.51-3.1.88-.8.36-1.37.8-1.74 1.3-.35.5-.53 1.05-.53 1.67 0 .58.1 1.1.3 1.52a2.9 2.9 0 0 0 .76 1.05c.34.27.73.46 1.17.6a6.13 6.13 0 0 0 1.45.17 7.3 7.3 0 0 0 3.5-.81 12.04 12.04 0 0 0 2.82-2.2v-4.62zm-12.65-9.1a12.72 12.72 0 0 1 3.99-2.66c1.42-.59 3-.88 4.72-.88 1.25 0 2.36.2 3.33.61a6.81 6.81 0 0 1 3.94 4.38c.33 1.04.5 2.19.5 3.43V93h-1.74a1.8 1.8 0 0 1-.88-.18c-.2-.13-.36-.38-.48-.74l-.44-2.12-1.72 1.46a9.48 9.48 0 0 1-3.74 1.7c-.69.15-1.46.23-2.3.23-.87 0-1.69-.12-2.45-.35a5.33 5.33 0 0 1-3.34-2.93 6.62 6.62 0 0 1-.49-2.64c0-.88.25-1.72.73-2.53a6.33 6.33 0 0 1 2.35-2.17c1.09-.63 2.5-1.15 4.25-1.54 1.74-.41 3.89-.65 6.42-.7v-1.75c0-1.73-.37-3.03-1.12-3.91-.75-.9-1.84-1.34-3.28-1.34-.97 0-1.78.12-2.44.37-.64.23-1.2.5-1.7.81l-1.22.82c-.34.23-.68.35-1.02.35-.26 0-.49-.07-.68-.2a1.88 1.88 0 0 1-.48-.53l-.7-1.25zM40.98 32.25c0 2.36-.38 4.53-1.12 6.51a14.26 14.26 0 0 1-8.1 8.4c-1.9.78-4.02 1.17-6.34 1.17-2.31 0-4.42-.39-6.33-1.17a14.31 14.31 0 0 1-8.08-8.4 18.29 18.29 0 0 1-1.12-6.51c0-2.36.38-4.53 1.12-6.5.75-1.97 1.8-3.67 3.17-5.1a14.32 14.32 0 0 1 4.9-3.34c1.92-.8 4.03-1.19 6.34-1.19 2.32 0 4.43.4 6.34 1.19 1.92.8 3.56 1.9 4.93 3.34a14.87 14.87 0 0 1 3.17 5.1 18.1 18.1 0 0 1 1.12 6.5zm-4.38 0c0-1.94-.26-3.68-.8-5.22a10.91 10.91 0 0 0-2.24-3.89 9.68 9.68 0 0 0-3.52-2.46 11.95 11.95 0 0 0-4.62-.86c-1.68 0-3.21.28-4.6.86a9.88 9.88 0 0 0-3.54 2.46 10.91 10.91 0 0 0-2.24 3.9c-.53 1.53-.8 3.27-.8 5.2 0 1.94.27 3.68.8 5.22a11.17 11.17 0 0 0 2.24 3.9 10.01 10.01 0 0 0 3.55 2.44c1.38.56 2.9.83 4.6.83s3.24-.27 4.61-.83a9.8 9.8 0 0 0 3.52-2.44 11.17 11.17 0 0 0 2.25-3.9c.53-1.54.8-3.28.8-5.21zm26.22-6.54V48H60.5c-.56 0-.9-.27-1.05-.81l-.31-2.4a12.45 12.45 0 0 1-3.26 2.6c-1.2.64-2.58.96-4.13.96-1.22 0-2.3-.2-3.24-.6a6.52 6.52 0 0 1-2.33-1.7 7.37 7.37 0 0 1-1.43-2.67c-.3-1.04-.46-2.2-.46-3.45V25.7h3.91v14.22c0 1.68.38 2.99 1.15 3.91.77.93 1.96 1.39 3.54 1.39 1.16 0 2.24-.27 3.23-.82a10.42 10.42 0 0 0 2.8-2.28V25.7h3.91zm8.61 4.47a9.94 9.94 0 0 1 2.6-3.56 5.64 5.64 0 0 1 3.76-1.3c.47 0 .92.05 1.34.15.44.1.83.27 1.17.49l-.3 2.92c-.09.37-.3.55-.66.55-.2 0-.5-.04-.9-.13a6.21 6.21 0 0 0-3.24.18 4.23 4.23 0 0 0-1.47.92c-.42.4-.81.9-1.17 1.5-.33.58-.64 1.26-.92 2.02V48H67.7V25.71h2.25c.42 0 .72.08.88.25.16.16.27.44.33.83l.26 3.39zm61.16-13.7L122.75 48h-3.82l-7.99-24.05a21.95 21.95 0 0 1-.42-1.58 38.36 38.36 0 0 1-.44 1.58L102.05 48h-3.83L88.4 16.47h3.54c.38 0 .7.1.95.29.26.2.43.43.5.73l6.52 21.9.28 1.28.29 1.46.3-1.46.38-1.27 7.41-21.91c.1-.25.26-.48.51-.69.27-.22.58-.33.95-.33h1.23c.38 0 .69.1.92.29a1.77 1.77 0 0 1 .53.73l7.4 21.9a28.4 28.4 0 0 1 .68 2.62 29.52 29.52 0 0 1 .52-2.61l6.54-21.91a1.31 1.31 0 0 1 .48-.7c.27-.21.58-.32.95-.32h3.32zm9.35 8.88c1.63 0 3.1.27 4.4.82a9.43 9.43 0 0 1 5.46 5.94c.5 1.4.74 2.98.74 4.73 0 1.76-.25 3.34-.74 4.75a9.43 9.43 0 0 1-5.46 5.92c-1.3.52-2.77.79-4.4.79-1.64 0-3.12-.27-4.44-.8a9.42 9.42 0 0 1-3.35-2.3c-.92-1-1.63-2.2-2.13-3.61-.49-1.41-.73-3-.73-4.75s.24-3.33.73-4.73c.5-1.43 1.2-2.64 2.13-3.63.93-1 2.04-1.77 3.35-2.31 1.32-.55 2.8-.82 4.44-.82zm0 19.89c2.2 0 3.84-.73 4.93-2.2 1.08-1.48 1.63-3.54 1.63-6.18 0-2.66-.55-4.72-1.63-6.2-1.09-1.49-2.73-2.23-4.93-2.23-1.12 0-2.09.2-2.93.57a5.71 5.71 0 0 0-2.06 1.65c-.55.72-.96 1.61-1.24 2.67-.26 1.04-.4 2.22-.4 3.54 0 2.64.55 4.7 1.64 6.18 1.1 1.47 2.76 2.2 4.99 2.2zm17.97-15.07a9.94 9.94 0 0 1 2.6-3.56 5.64 5.64 0 0 1 3.76-1.3c.47 0 .91.05 1.34.15.44.1.83.27 1.16.49l-.28 2.92c-.09.37-.31.55-.66.55-.2 0-.5-.04-.9-.13a6.2 6.2 0 0 0-3.24.18 4.23 4.23 0 0 0-1.47.92c-.43.4-.82.9-1.17 1.5a13.1 13.1 0 0 0-.92 2.02V48h-3.94V25.71h2.24c.43 0 .72.08.88.25.17.16.28.44.33.83l.27 3.39zm15.04-14.59V48h-3.92V15.6h3.92zm19.55 15.43a6.22 6.22 0 0 0-2.38-2.05 6.7 6.7 0 0 0-2.86-.6c-2.07 0-3.66.75-4.77 2.23-1.12 1.48-1.68 3.6-1.68 6.33 0 1.46.13 2.7.38 3.74a7.29 7.29 0 0 0 1.1 2.56 4.35 4.35 0 0 0 1.78 1.45c.7.3 1.5.46 2.4.46 1.29 0 2.41-.3 3.36-.88a9.6 9.6 0 0 0 2.67-2.49V31.02zm3.91-15.43V48h-2.33c-.56 0-.9-.27-1.06-.81l-.35-2.71a12.13 12.13 0 0 1-3.25 2.77 8.28 8.28 0 0 1-4.23 1.06 7.31 7.31 0 0 1-6.14-2.9c-.73-.96-1.3-2.15-1.69-3.57a18.35 18.35 0 0 1 .07-9.48 11.29 11.29 0 0 1 1.89-3.7 8.7 8.7 0 0 1 7.06-3.34 7.96 7.96 0 0 1 6.12 2.62V15.59h3.91zM46.61 70.71V93H42.7V70.71h3.91zm.84-7c0 .39-.08.75-.24 1.09-.15.32-.35.61-.62.88-.25.25-.55.44-.9.59a2.67 2.67 0 0 1-2.16 0 2.9 2.9 0 0 1-1.45-1.47 2.67 2.67 0 0 1 0-2.16c.15-.35.35-.65.6-.9.25-.27.53-.47.85-.62a2.67 2.67 0 0 1 2.16 0c.35.15.65.35.9.62.27.25.47.55.62.9.16.34.24.7.24 1.08zm7.97 10.24c.49-.54 1-1.04 1.54-1.48a9.85 9.85 0 0 1 3.66-1.84 8.96 8.96 0 0 1 5.43.35c.94.4 1.72.97 2.33 1.71.63.74 1.11 1.62 1.43 2.67.32 1.04.49 2.19.49 3.45V93h-3.94V78.81c0-1.69-.4-3-1.17-3.92-.76-.93-1.93-1.4-3.5-1.4-1.15 0-2.24.27-3.25.83-1 .56-1.92 1.31-2.77 2.27V93h-3.94V70.71h2.35c.56 0 .9.28 1.04.82l.3 2.42zm57.7 3.3c0 2.36-.37 4.5-1.11 6.44a14.3 14.3 0 0 1-3.17 4.98c-1.37 1.37-3 2.45-4.93 3.2-1.9.76-4.02 1.13-6.33 1.13H85.8V61.47h11.77c2.31 0 4.42.39 6.33 1.15a13.8 13.8 0 0 1 8.1 8.18 17.75 17.75 0 0 1 1.12 6.45zm-4.37 0c0-1.94-.26-3.67-.8-5.2a10.94 10.94 0 0 0-2.23-3.87 9.57 9.57 0 0 0-3.53-2.42 12.23 12.23 0 0 0-4.61-.83h-7.5v24.62h7.5c1.7 0 3.24-.28 4.61-.84a9.7 9.7 0 0 0 3.53-2.4 10.94 10.94 0 0 0 2.24-3.87c.53-1.53.8-3.26.8-5.2zm19.8 5.72c-1.8.06-3.34.2-4.62.44-1.26.22-2.3.51-3.1.88-.8.36-1.37.8-1.74 1.3-.35.5-.53 1.05-.53 1.67 0 .58.1 1.1.3 1.52a3 3 0 0 0 .76 1.05c.34.27.73.46 1.17.6a6.13 6.13 0 0 0 1.45.17 7.28 7.28 0 0 0 3.5-.81 11.95 11.95 0 0 0 2.82-2.2v-4.62zm-12.65-9.11a12.73 12.73 0 0 1 3.98-2.66c1.43-.59 3-.88 4.73-.88 1.25 0 2.36.2 3.33.61a6.81 6.81 0 0 1 3.94 4.38c.33 1.04.5 2.19.5 3.43V93h-1.74a1.8 1.8 0 0 1-.88-.18c-.2-.13-.36-.38-.48-.74l-.44-2.12-1.72 1.46a9.48 9.48 0 0 1-3.74 1.7c-.69.15-1.46.23-2.3.23-.87 0-1.69-.12-2.45-.35a5.34 5.34 0 0 1-3.34-2.93 6.64 6.64 0 0 1-.49-2.64c0-.88.25-1.72.73-2.53a6.33 6.33 0 0 1 2.35-2.17c1.09-.63 2.5-1.15 4.25-1.54 1.75-.41 3.89-.65 6.42-.7v-1.75c0-1.73-.37-3.03-1.12-3.91-.75-.9-1.84-1.34-3.28-1.34-.97 0-1.78.12-2.44.37-.64.23-1.2.5-1.7.81l-1.23.82c-.33.23-.67.35-1 .35-.27 0-.5-.07-.69-.2a2.1 2.1 0 0 1-.48-.53l-.7-1.25zm27.67 19.5c-1.76 0-3.12-.5-4.07-1.48-.94-.98-1.41-2.4-1.41-4.25V74h-2.68a.9.9 0 0 1-.6-.2c-.16-.14-.24-.36-.24-.66v-1.56l3.65-.46.9-6.89c.05-.22.14-.4.29-.52a.88.88 0 0 1 .62-.22H142v7.67h6.44V74H142v13.38c0 .94.22 1.63.68 2.09.45.45 1.04.68 1.76.68a3.21 3.21 0 0 0 1.85-.53l.55-.35c.16-.12.3-.18.41-.18.2 0 .4.13.55.38l1.15 1.87a7.45 7.45 0 0 1-2.44 1.5 8.53 8.53 0 0 1-2.95.52zm19.68-10.4c-1.8.07-3.34.21-4.62.45-1.26.22-2.3.51-3.1.88-.8.36-1.37.8-1.74 1.3-.35.5-.53 1.05-.53 1.67 0 .58.1 1.1.3 1.52a2.9 2.9 0 0 0 .76 1.05c.34.27.73.46 1.17.6a6.13 6.13 0 0 0 1.45.17 7.3 7.3 0 0 0 3.5-.81 12.04 12.04 0 0 0 2.82-2.2v-4.62zm-12.65-9.1a12.72 12.72 0 0 1 3.99-2.66c1.42-.59 3-.88 4.72-.88 1.25 0 2.36.2 3.33.61a6.81 6.81 0 0 1 3.94 4.38c.33 1.04.5 2.19.5 3.43V93h-1.74a1.8 1.8 0 0 1-.88-.18c-.2-.13-.36-.38-.48-.74l-.44-2.12-1.72 1.46a9.48 9.48 0 0 1-3.74 1.7c-.69.15-1.46.23-2.3.23-.87 0-1.69-.12-2.45-.35a5.33 5.33 0 0 1-3.34-2.93 6.62 6.62 0 0 1-.49-2.64c0-.88.25-1.72.73-2.53a6.33 6.33 0 0 1 2.35-2.17c1.09-.63 2.5-1.15 4.25-1.54 1.74-.41 3.89-.65 6.42-.7v-1.75c0-1.73-.37-3.03-1.12-3.91-.75-.9-1.84-1.34-3.28-1.34-.97 0-1.78.12-2.44.37-.64.23-1.2.5-1.7.81l-1.22.82c-.34.23-.68.35-1.02.35-.26 0-.49-.07-.68-.2a1.88 1.88 0 0 1-.48-.53l-.7-1.25z"
    fill="#fff"
  />
  <path fill="#D42B21" d="M0 106.79h210V120H0z" />
</g>
<defs>
  <clipPath id="clip0"><path fill="#fff" d="M0 0h210v120H0z" /></clipPath>
</defs>
</svg></g><a href="https://ourworldindata.org/explorers/coronavirus-data-explorer?yScale=log&amp;zoomToSelection=true&amp;time=2020-03-01..2021-01-08&amp;facet=none&amp;pickerSort=desc&amp;pickerMetric=total_deaths&amp;hideControls=true&amp;Metric=Confirmed+deaths&amp;Interval=7-day+rolling+average&amp;Relative+to+Population=true&amp;Align+outbreaks=false&amp;country=IND~CAN~DEU~TUR~ITA~CHN~IRQ" style="font-family:&quot;Playfair Display&quot;, Georgia, &quot;Times New Roman&quot;, serif" target="_blank" rel="noopener"><text font-size="25.20" x="15.0" y="35.2" fill="#555"><tspan x="15" y="35.160000000000004">Daily new confirmed COVID-19 deaths per million people</tspan></text></a><text font-size="14.40" x="15.0" y="55.7" fill="#666"><tspan x="15" y="55.72">Shown is the rolling 7-day average. Limited testing and challenges in the attribution of the cause of death means</tspan><tspan x="15" y="73">that the number of confirmed deaths may not be an accurate count of the true number of deaths from COVID-19.</tspan></text></g><g class="LineChart"><defs><clipPath id="boundsClip-5"><rect x="50.824" y="82.2" width="840" height="475.2"></rect></clipPath></defs><g class="DualAxisView"><g class="HorizontalAxis"><line x1="60.8" y1="526.2" x2="60.8" y2="531.2" stroke="#999"></line><line x1="744.4" y1="526.2" x2="744.4" y2="531.2" stroke="#999"></line><line x1="301.1" y1="526.2" x2="301.1" y2="531.2" stroke="#999"></line><line x1="410.2" y1="526.2" x2="410.2" y2="531.2" stroke="#999"></line><line x1="519.4" y1="526.2" x2="519.4" y2="531.2" stroke="#999"></line><text x="60.824" y="547.4" fill="#666" text-anchor="start" font-size="16.2">Mar 1, 2020</text><text x="744.38" y="547.4" fill="#666" text-anchor="end" font-size="16.2">Jan 8, 2021</text><text x="301.1" y="547.4" fill="#666" text-anchor="middle" font-size="16.2">Jun 19, 2020</text><text x="410.2" y="547.4" fill="#666" text-anchor="middle" font-size="16.2">Aug 8, 2020</text><text x="519.4" y="547.4" fill="#666" text-anchor="middle" font-size="16.2">Sep 27, 2020</text></g><g class="VerticalAxis"><text x="55.82" y="526.2" dy=".32em" text-anchor="end" fill="#666" font-size="16.2">0.001</text><text x="55.82" y="421.1" dy=".32em" text-anchor="end" fill="#666" font-size="16.2">0.01</text><text x="55.82" y="316" dy=".32em" text-anchor="end" fill="#666" font-size="16.2">0.1</text><text x="55.82" y="210.9" dy=".32em" text-anchor="end" fill="#666" font-size="16.2">1</text><text x="55.82" y="105.9" dy=".32em" text-anchor="end" fill="#666" font-size="16.2">10</text></g><g class="AxisGridLines horizontalLines"><line x1="60.82" y1="526.2" x2="744.38" y2="526.2" stroke="#ddd" stroke-dasharray="3,2"></line><line x1="60.82" y1="421.1" x2="744.38" y2="421.1" stroke="#ddd" stroke-dasharray="3,2"></line><line x1="60.82" y1="316" x2="744.38" y2="316" stroke="#ddd" stroke-dasharray="3,2"></line><line x1="60.82" y1="210.9" x2="744.38" y2="210.9" stroke="#ddd" stroke-dasharray="3,2"></line><line x1="60.82" y1="105.9" x2="744.38" y2="105.9" stroke="#ddd" stroke-dasharray="3,2"></line></g></g><g clip-path="url(#boundsClip-5)"><g class="LineLabels" style="cursor:default"><g class="legendMark"><g class="indicator"><path d="M748.38,105.8 H761.88 V103.8 H775.38" stroke="#999" stroke-width="0.5" fill="none"></path></g><rect x="744.38" y="97.05" width="90.62" height="13.5" fill="#fff" opacity="0"></rect><text font-size="13.50" x="779.4" y="107.8" fill="#00847E"><tspan x="779.38" y="107.85">Germany</tspan></text></g><g class="legendMark"><g class="indicator"><path d="M748.38,117.3 H761.88 V119.3 H775.38" stroke="#999" stroke-width="0.5" fill="none"></path></g><rect x="744.38" y="112.55" width="59.84" height="13.5" fill="#fff" opacity="0"></rect><text font-size="13.50" x="779.4" y="123.3" fill="#4C6A9C"><tspan x="779.38" y="123.35">Italy</tspan></text></g><g class="legendMark"><g class="indicator"><path d="M748.38,148.8 H761.88 V148.8 H775.38" stroke="#999" stroke-width="0.5" fill="none"></path></g><rect x="744.38" y="142.05" width="82.52000000000001" height="13.5" fill="#fff" opacity="0"></rect><text font-size="13.50" x="779.4" y="152.9" fill="#3C4E66"><tspan x="779.38" y="152.85000000000002">Canada</tspan></text></g><g class="legendMark"><g class="indicator"><path d="M748.38,173.3 H761.88 V173.3 H775.38" stroke="#999" stroke-width="0.5" fill="none"></path></g><rect x="744.38" y="166.55" width="76.31" height="13.5" fill="#fff" opacity="0"></rect><text font-size="13.50" x="779.4" y="177.4" fill="#00823F"><tspan x="779.38" y="177.35000000000002">Turkey</tspan></text></g><g class="legendMark"><g class="indicator"><path d="M748.38,288.2 H757.38 V285.8 H775.38" stroke="#999" stroke-width="0.5" fill="none"></path></g><rect x="744.38" y="279.05" width="58.355000000000004" height="13.5" fill="#fff" opacity="0"></rect><text font-size="13.50" x="779.4" y="289.9" fill="#D73C50"><tspan x="779.38" y="289.85">Iraq</tspan></text></g><g class="legendMark"><g class="indicator"><path d="M748.38,304.8 H766.38 V301.3 H775.38" stroke="#999" stroke-width="0.5" fill="none"></path></g><rect x="744.38" y="294.55" width="70.37" height="13.5" fill="#fff" opacity="0"></rect><text font-size="13.50" x="779.4" y="305.4" fill="#C05917"><tspan x="779.38" y="305.35">China</tspan></text></g><g class="legendMark"><g class="indicator"><path d="M748.38,310.9 H766.38 V316.8 H775.38" stroke="#999" stroke-width="0.5" fill="none"></path></g><rect x="744.38" y="310.05" width="64.43" height="13.5" fill="#fff" opacity="0"></rect><text font-size="13.50" x="779.4" y="320.9" fill="#6D3E91"><tspan x="779.38" y="320.85">India</tspan></text></g></g><g class="Lines"><rect x="61" y="92" width="684" height="434" fill="rgba(255,255,255,0)" opacity="0"></rect><g><path stroke-linecap="round" stroke-linejoin="round" stroke="#ddd" d="M106.7 526.2L108.9 526.2L111.1 526.2L113.2 526.2L115.4 494.6L117.6 494.6L119.8 494.6L122 494.6L124.2 494.6L126.3 476.1L128.5 452.7L130.7 452.7L132.9 452.7L135.1 444.4L137.3 437.4L139.4 416.8L141.6 412.8L143.8 412.8L146 399.7L148.2 394.3L150.4 387.3L152.5 381.2L154.7 383.1L156.9 379.3L159.1 383.1L161.3 383.1L163.5 379.3L165.7 381.2L167.8 383.1L170 381.2L172.2 377.5L174.4 374.1L176.6 374.1L178.8 371L180.9 369.5L183.1 366.6L185.3 362.7L187.5 361.4L189.7 356.7L191.9 353.5L194 352.5L196.2 346.8L198.4 345.9L200.6 336.4L202.8 332.3L205 331L207.1 329.2L209.3 327.4L211.5 326.2L213.7 324L215.9 329.2L218.1 329.8L220.2 326.8L222.4 327.4L224.6 326.8L226.8 326.8L229 324.5L231.2 321.9L233.4 320.3L235.5 320.3L237.7 317.9L239.9 316L242.1 315.1L244.3 315.1L246.5 314.2L248.6 312.9L250.8 310.5L253 309.3L255.2 304.4L257.4 302.3L259.6 300L261.7 298.4L263.9 296.9L266.1 294.9L268.3 292.1L270.5 291.5L272.7 289L274.8 288.2L277 286.5L279.2 285.1L281.4 283L283.6 280.3L285.8 278.2L287.9 277.8L290.1 276.6L292.3 274.4L294.5 249.9L296.7 250.1L298.9 250.8L301.1 250.9L303.2 251L305.4 249.7L307.6 250.4L309.8 271.7L312 270.4L314.2 269L316.3 268.9L318.5 267.3L320.7 268.2L322.9 266.7L325.1 265.9L327.3 265.7L329.4 266L331.6 265.3L333.8 262.2L336 261.5L338.2 260.9L340.4 261.3L342.5 260.4L344.7 259.1L346.9 258.1L349.1 259L351.3 258L353.5 256.8L355.6 255.6L357.8 254.2L360 251.6L362.2 250L364.4 250L366.6 248.1L368.8 247.8L370.9 247.1L373.1 241.9L375.3 241.4L377.5 240.7L379.7 239.2L381.9 239L384 238.6L386.2 237.4L388.4 240.6L390.6 240.4L392.8 240.1L395 238.7L397.1 238.2L399.3 236.8L401.5 236.3L403.7 235.1L405.9 234.1L408.1 233.1L410.2 233L412.4 231.2L414.6 230.7L416.8 231L419 230.7L421.2 229.8L423.3 229.4L425.5 228.7L427.7 229.2L429.9 229.2L432.1 227.4L434.3 227.2L436.5 227.4L438.6 227.7L440.8 227.9L443 228.6L445.2 228.8L447.4 229.7L449.6 228.7L451.7 228.2L453.9 227.7L456.1 227.5L458.3 226.6L460.5 226.8L462.7 226.3L464.8 226.7L467 226.4L469.2 226L471.4 225.2L473.6 225L475.8 223L477.9 222.6L480.1 221.8L482.3 221.1L484.5 220.5L486.7 220.2L488.9 219.6L491 220L493.2 219L495.4 219.2L497.6 219.4L499.8 219.2L502 219.1L504.2 219.1L506.3 219.1L508.5 220.3L510.7 220.3L512.9 220.4L515.1 221.4L517.3 221.4L519.4 222L521.6 223.6L523.8 223.1L526 222.8L528.2 223.1L530.4 223.2L532.5 224.3L534.7 225.2L536.9 224.5L539.1 225.7L541.3 227.1L543.5 227.9L545.6 228.9L547.8 229.1L550 229.7L552.2 231L554.4 232.9L556.6 235.2L558.7 235.7L560.9 236.4L563.1 235.5L565.3 237.4L567.5 238.4L569.7 238.6L571.9 238.3L574 240.2L576.2 241.9L578.4 246.2L580.6 247.2L582.8 248.3L585 250.5L587.1 252.6L589.3 254.2L591.5 255.3L593.7 256.7L595.9 256.6L598.1 256.4L600.2 256.4L602.4 254.2L604.6 252.9L606.8 252.5L609 251.5L611.2 251.5L613.3 252.1L615.5 252.1L617.7 253.9L619.9 255.3L622.1 256.1L624.3 257.6L626.5 258.2L628.6 258.2L630.8 258.7L633 258.3L635.2 257.8L637.4 257.2L639.6 256.6L641.7 255.6L643.9 255.2L646.1 255.1L648.3 255.8L650.5 257.1L652.7 258.1L654.8 258.1L657 259L659.2 259L661.4 258.7L663.6 258.7L665.8 258.1L667.9 257.7L670.1 258L672.3 258.6L674.5 259.9L676.7 261.3L678.9 262.9L681 264.8L683.2 265.9L685.4 267.3L687.6 268.2L689.8 268.7L692 268.9L694.2 269.9L696.3 271.2L698.5 273L700.7 273.8L702.9 273.8L705.1 274.9L707.3 275.9L709.4 276.8L711.6 276.8L713.8 278.8L716 280L718.2 281.3L720.4 282.4L722.5 283.3L724.7 283.7L726.9 285.6L729.1 280.5L731.3 287.7L733.5 289.5L735.6 290.8L737.8 291.3L740 293.5L742.2 294L744.4 310.9" fill="none" stroke-width="1"></path></g><g><path stroke-linecap="round" stroke-linejoin="round" stroke="#ddd" d="M95.8 494.6L98 494.6L100.1 452.7L102.3 437.4L104.5 402.6L106.7 347.7L108.9 337.8L111.1 331L113.2 317.4L115.4 307.3L117.6 298.1L119.8 292.9L122 291.8L124.2 280L126.3 268.1L128.5 256.8L130.7 245.2L132.9 237.5L135.1 229.9L137.3 224.4L139.4 220.7L141.6 217.9L143.8 215.8L146 214.4L148.2 212.1L150.4 210.6L152.5 208.8L154.7 207.1L156.9 205L159.1 203.2L161.3 201.3L163.5 199.6L165.7 198.1L167.8 196.4L170 195L172.2 194.4L174.4 194.3L176.6 194.8L178.8 195.7L180.9 196.5L183.1 198.1L185.3 199.8L187.5 201.5L189.7 203.2L191.9 204.7L194 206.4L196.2 208.4L198.4 211.2L200.6 213.7L202.8 216.4L205 218.6L207.1 222.1L209.3 225.7L211.5 228.7L213.7 230.4L215.9 231.5L218.1 232.2L220.2 232.9L222.4 233.1L224.6 233.1L226.8 234.3L229 234.6L231.2 237.9L233.4 241.5L235.5 247L237.7 252L239.9 256.2L242.1 258.1L244.3 260.7L246.5 261.1L248.6 261.1L250.8 258.7L253 258.1L255.2 257.8L257.4 259.1L259.6 260.7L261.7 262.1L263.9 263.5L266.1 266L268.3 268.4L270.5 271.2L272.7 272.6L274.8 273.3L277 274.4L279.2 275.7L281.4 278L283.6 279.4L285.8 280.5L287.9 282.8L290.1 286L292.3 286.3L294.5 286.7L296.7 286L298.9 284.4L301.1 281.5L303.2 278.6L305.4 276.1L307.6 274.2L309.8 271.2L312 269.9L314.2 269.9L316.3 270.9L318.5 272.4L320.7 274.8L322.9 276.6L325.1 280.5L327.3 282.2L329.4 283.7L331.6 283.7L333.8 282.6L336 281.1L338.2 281.7L340.4 280.7L342.5 279.6L344.7 279.4L346.9 278L349.1 277.6L351.3 277.6L353.5 276.6L355.6 276.3L357.8 278L360 277L362.2 278.6L364.4 280L366.6 281.1L368.8 281.7L370.9 282.6L373.1 281.7L375.3 282.8L377.5 283.3L379.7 283.7L381.9 283.3L384 283.3L386.2 284.4L388.4 286.3L390.6 287.7L392.8 287.7L395 286.3L397.1 286L399.3 285.1L401.5 283.9L403.7 282.2L405.9 282.6L408.1 283.3L410.2 284.4L412.4 285.6L414.6 287.7L416.8 289L419 289.2L421.2 286.3L423.3 283.7L425.5 281.7L427.7 280.5L429.9 277.6L432.1 276.1L434.3 274.4L436.5 275.1L438.6 275.1L440.8 274.8L443 274.8L445.2 276.1L447.4 274.8L449.6 275.7L451.7 273.5L453.9 269.5L456.1 265L458.3 259.6L460.5 254.2L462.7 249.8L464.8 245.5L467 241.9L469.2 239.4L471.4 237.1L473.6 235.6L475.8 233.9L477.9 233.3L480.1 232L482.3 231L484.5 230.6L486.7 231.5L488.9 231.1L491 230.4L493.2 228.6L495.4 227.7L497.6 226.8L499.8 226.2L502 224.1L504.2 223.7L506.3 223.2L508.5 223.4L510.7 222.5L512.9 221.7L515.1 220.7L517.3 220.4L519.4 219.7L521.6 220L523.8 219.7L526 220.4L528.2 221.1L530.4 222.1L532.5 223.2L534.7 224.3L536.9 225.2L539.1 226.5L541.3 227.5L543.5 228.5L545.6 229.4L547.8 229.8L550 229.6L552.2 229.4L554.4 228.6L556.6 228.5L558.7 227.6L560.9 225.7L563.1 224.1L565.3 222.8L567.5 221.1L569.7 220L571.9 219L574 218.5L576.2 218.5L578.4 218.6L580.6 218.6L582.8 218.6L585 218.5L587.1 217.7L589.3 217.6L591.5 217.2L593.7 216.7L595.9 216.5L598.1 216.4L600.2 216.2L602.4 216.2L604.6 215.4L606.8 214.9L609 214.5L611.2 213.7L613.3 212.9L615.5 212.3L617.7 211.6L619.9 211L622.1 210.3L624.3 209.5L626.5 209.1L628.6 208.4L630.8 207.3L633 205.2L635.2 202.9L637.4 199.9L639.6 197.4L641.7 194.6L643.9 191.6L646.1 188.8L648.3 186.4L650.5 184.1L652.7 182.6L654.8 180.7L657 178.9L659.2 177.6L661.4 176.6L663.6 175.7L665.8 175.2L667.9 174.7L670.1 174.2L672.3 173.9L674.5 173.3L676.7 172.6L678.9 171.9L681 170.8L683.2 169.8L685.4 168.9L687.6 168.3L689.8 167.5L692 166.8L694.2 166.1L696.3 165.4L698.5 164.9L700.7 164.4L702.9 163.6L705.1 162.9L707.3 162.5L709.4 162L711.6 161.7L713.8 161.4L716 161.1L718.2 160.9L720.4 160.9L722.5 160.8L724.7 160.9L726.9 161.3L729.1 162.5L731.3 163.8L733.5 165.5L735.6 167.3L737.8 169L740 171L742.2 172.5L744.4 173.3" fill="none" stroke-width="1"></path></g><g><path stroke-linecap="round" stroke-linejoin="round" stroke="#ddd" d="M78.3 476.1L80.5 476.1L82.7 452.7L84.8 452.7L87 412.8L89.2 402.6L91.4 391.8L93.6 377.5L95.8 361.4L98 354.5L100.1 332.3L102.3 315.1L104.5 304.8L106.7 300.3L108.9 289.2L111.1 278.8L113.2 265.4L115.4 255.1L117.6 245.6L119.8 234.7L122 224.3L124.2 216.3L126.3 208.6L128.5 202L130.7 194.6L132.9 189.8L135.1 186.2L137.3 184.4L139.4 179.7L141.6 176.8L143.8 170.4L146 168.2L148.2 168.4L150.4 175L152.5 170.1L154.7 171.8L156.9 175.5L159.1 169.5L161.3 169.9L163.5 165.6L165.7 161.8L167.8 166.2L170 163.3L172.2 161.4L174.4 168.9L176.6 167.5L178.8 171L180.9 170.7L183.1 171.6L185.3 176L187.5 175.4L189.7 178.8L191.9 184.5L194 187.8L196.2 189.7L198.4 192L200.6 193.2L202.8 204.3L205 196.4L207.1 198.7L209.3 198.3L211.5 200.6L213.7 202.7L215.9 205.1L218.1 200.1L220.2 211L222.4 219L224.6 230L226.8 229.8L229 229.3L231.2 235.6L233.4 235.5L235.5 244.3L237.7 238.8L239.9 237.1L242.1 238.2L244.3 238.5L246.5 240.7L248.6 243L250.8 244.1L253 246.9L255.2 245.4L257.4 246.6L259.6 248.6L261.7 250.6L263.9 262.2L266.1 266.5L268.3 268.9L270.5 272.1L272.7 275.5L274.8 274.8L277 276.5L279.2 266.7L281.4 273.3L283.6 277.4L285.8 281.5L287.9 283.5L290.1 284.9L292.3 286.5L294.5 299.7L296.7 292.1L298.9 290.5L301.1 290L303.2 290.8L305.4 294.6L307.6 295.4L309.8 294.6L312 303.7L314.2 311.3L316.3 303L318.5 306.2L320.7 306.2L322.9 303.7L325.1 304.4L327.3 310L329.4 310.9L331.6 328L333.8 321.3L336 318.9L338.2 327.4L340.4 331L342.5 322.4L344.7 322.4L346.9 320.8L349.1 323.4L351.3 325.1L353.5 321.3L355.6 327.4L357.8 340.9L360 346.8L362.2 354.5L364.4 362.7L366.6 362.7L368.8 365.3L370.9 362.7L373.1 361.4L375.3 359L377.5 344.2L379.7 342.5L381.9 344.2L384 345L386.2 344.2L388.4 342.5L390.6 340.9L392.8 351.5L395 346.8L397.1 346.8L399.3 348.6L401.5 344.2L403.7 329.2L405.9 337.1L408.1 325.1L410.2 326.2L412.4 325.1L414.6 324.5L416.8 328L419 340.9L421.2 338.6L423.3 339.3L425.5 340.9L427.7 342.5L429.9 342.5L432.1 342.5L434.3 338.6L436.5 327.4L438.6 338.6L440.8 337.1L443 333.6L445.2 333.6L447.4 333.6L449.6 338.6L451.7 351.5L453.9 356.7L456.1 351.5L458.3 354.5L460.5 351.5L462.7 353.5L464.8 337.1L467 344.2L469.2 337.1L471.4 346.8L473.6 346.8L475.8 349.5L477.9 348.6L480.1 365.3L482.3 359L484.5 362.7L486.7 359L488.9 356.7L491 354.5L493.2 345L495.4 345L497.6 345L499.8 335.7L502 338.6L504.2 338.6L506.3 340.9L508.5 335.7L510.7 323.4L512.9 315.1L515.1 311.3L517.3 307.3L519.4 305.5L521.6 303L523.8 303L526 306.6L528.2 306.2L530.4 310L532.5 306.6L534.7 308.9L536.9 298.8L539.1 300.3L541.3 298.1L543.5 299.1L545.6 301.3L547.8 296.9L550 295.2L552.2 298.8L554.4 284.9L556.6 278.4L558.7 274.8L560.9 266.5L563.1 268.9L565.3 267L567.5 259.6L569.7 260L571.9 261.3L574 255.6L576.2 259L578.4 249.9L580.6 247.4L582.8 250.1L585 252L587.1 240.5L589.3 235.3L591.5 227L593.7 223.3L595.9 223L598.1 211.7L600.2 210.3L602.4 200.9L604.6 196.5L606.8 194.1L609 195.6L611.2 193.6L613.3 200.5L615.5 183.8L617.7 184.7L619.9 182.1L622.1 179.7L624.3 178.1L626.5 178.3L628.6 170.5L630.8 172.7L633 171.4L635.2 169.8L637.4 167.7L639.6 166.7L641.7 165.6L643.9 164.4L646.1 162.6L648.3 159.3L650.5 155.5L652.7 152.9L654.8 152.4L657 151.8L659.2 150L661.4 147.8L663.6 145.8L665.8 145.6L667.9 143.6L670.1 142L672.3 141.6L674.5 140.7L676.7 139.3L678.9 139.7L681 137L683.2 136.7L685.4 135.6L687.6 134.8L689.8 133.6L692 128.9L694.2 125.6L696.3 123.8L698.5 121.3L700.7 120.4L702.9 120.2L705.1 118.3L707.3 117.5L709.4 116.7L711.6 120.1L713.8 125.4L716 126L718.2 124.6L720.4 123L722.5 121.5L724.7 119.9L726.9 118.4L729.1 117.4L731.3 117.7L733.5 118.1L735.6 117L737.8 118.1L740 117L742.2 111.4L744.4 105.8" fill="none" stroke-width="1"></path></g><g><path stroke-linecap="round" stroke-linejoin="round" stroke="#ddd" d="M78.3 462.9L80.5 462.9L82.7 462.9L84.8 462.9L87 462.9L89.2 462.9L91.4 462.9L93.6 416.8L95.8 391.8L98 360.2L100.1 360.2L102.3 345L104.5 333.6L106.7 326.8L108.9 318.9L111.1 315.6L113.2 309.3L115.4 291L117.6 286.5L119.8 276.8L122 269.4L124.2 257.6L126.3 247.7L128.5 242.7L130.7 232.2L132.9 221.6L135.1 209L137.3 200L139.4 193L141.6 189.2L143.8 184.8L146 178.1L148.2 174.7L150.4 172L152.5 169.5L154.7 166.5L156.9 161.9L159.1 157.1L161.3 153.1L163.5 151.7L165.7 150.5L167.8 148.4L170 147.7L172.2 145.3L174.4 143.7L176.6 144.9L178.8 142.8L180.9 141.1L183.1 141.2L185.3 139.8L187.5 139.6L189.7 137.9L191.9 137.6L194 136.9L196.2 138.2L198.4 138.8L200.6 136.8L202.8 137.7L205 140.8L207.1 142L209.3 143.9L211.5 143.2L213.7 144.1L215.9 148.6L218.1 149.4L220.2 152L222.4 153.2L224.6 154.8L226.8 157.1L229 158.6L231.2 160.9L233.4 165.5L235.5 164.3L237.7 165.9L239.9 167.4L242.1 169.1L244.3 169.2L246.5 169.1L248.6 167.9L250.8 169.8L253 168.8L255.2 170L257.4 172.5L259.6 175.4L261.7 179.4L263.9 182.6L266.1 186.4L268.3 191.4L270.5 196.1L272.7 195.8L274.8 196.8L277 197.1L279.2 200L281.4 202.6L283.6 207.6L285.8 209.3L287.9 215.3L290.1 219.7L292.3 227.9L294.5 230.4L296.7 234.3L298.9 239.7L301.1 241L303.2 240.6L305.4 241.3L307.6 237.5L309.8 237.5L312 234.8L314.2 232L316.3 237.2L318.5 243.7L320.7 246.2L322.9 246.6L325.1 251.3L327.3 260.4L329.4 264.2L331.6 264.2L333.8 264.7L336 269.4L338.2 273.3L340.4 276.8L342.5 275.3L344.7 279.8L346.9 274.6L349.1 278.2L351.3 276.1L353.5 279.8L355.6 281.3L357.8 279.8L360 278.2L362.2 281.3L364.4 281.3L366.6 282.2L368.8 285.6L370.9 283.7L373.1 293.2L375.3 297.5L377.5 304.8L379.7 303.7L381.9 303.7L384 293.2L386.2 290.2L388.4 289.2L390.6 284.6L392.8 283L395 283L397.1 283.7L399.3 293.2L401.5 295.2L403.7 294.3L405.9 302.3L408.1 303.7L410.2 303.7L412.4 303.7L414.6 298.8L416.8 301L419 302.3L421.2 302.3L423.3 303.7L425.5 301L427.7 298.8L429.9 304.8L432.1 299.7L434.3 298.8L436.5 302.3L438.6 291L440.8 296.3L443 297.5L445.2 291L447.4 296.3L449.6 297.5L451.7 296.3L453.9 297.5L456.1 295.2L458.3 298.8L460.5 298.8L462.7 299.7L464.8 303.7L467 301L469.2 318.9L471.4 322.9L473.6 320.8L475.8 331.7L477.9 324.5L480.1 320.8L482.3 317L484.5 318.9L486.7 317L488.9 315.6L491 301L493.2 299.7L495.4 298.8L497.6 302.3L499.8 289.2L502 284.6L504.2 285.6L506.3 286.5L508.5 285.6L510.7 283L512.9 280.5L515.1 284.6L517.3 285.6L519.4 283L521.6 279L523.8 276.1L526 269.4L528.2 264.7L530.4 230.7L532.5 226.8L534.7 218.3L536.9 215.9L539.1 214.9L541.3 214.8L543.5 214.4L545.6 233.4L547.8 232L550 241L552.2 247L554.4 241.9L556.6 240L558.7 239.7L560.9 234.3L563.1 239.7L565.3 236.6L567.5 231.2L569.7 235.1L571.9 231.7L574 228.6L576.2 229.9L578.4 226.4L580.6 224.7L582.8 223.1L585 221.6L587.1 221.4L589.3 220.7L591.5 217.1L593.7 213.9L595.9 212.8L598.1 213.9L600.2 208.2L602.4 207.7L604.6 206.8L606.8 204.2L609 203L611.2 201.5L613.3 197.6L615.5 196.5L617.7 193.8L619.9 190.1L622.1 191.8L624.3 190.2L626.5 188.4L628.6 187L630.8 186.9L633 183L635.2 183.2L637.4 181.3L639.6 181L641.7 181.8L643.9 181.3L646.1 178.5L648.3 182.6L650.5 181.5L652.7 179.8L654.8 179.7L657 178.1L659.2 175.7L661.4 177.5L663.6 173.7L665.8 173.1L667.9 171.8L670.1 171.4L672.3 170.6L674.5 169.8L676.7 168.5L678.9 167.8L681 166L683.2 164.4L685.4 162.9L687.6 163L689.8 161.9L692 160.8L694.2 160.7L696.3 158.6L698.5 159.4L700.7 159L702.9 158.7L705.1 160.5L707.3 160L709.4 158.5L711.6 158.8L713.8 161.6L716 162.7L718.2 160.9L720.4 158.2L722.5 154.3L724.7 155.5L726.9 157.5L729.1 158.6L731.3 157.3L733.5 158.8L735.6 154.4L737.8 157.4L740 156L742.2 153.3L744.4 148.8" fill="none" stroke-width="1"></path></g><g><path stroke-linecap="round" stroke-linejoin="round" stroke="#ddd" d="M67.4 437.4L69.6 437.4L71.7 421.1L73.9 405.8L76.1 387.3L78.3 387.3L80.5 381.2L82.7 396.9L84.8 387.3L87 387.3L89.2 387.3L91.4 405.8L93.6 405.8L95.8 405.8L98 396.9L100.1 396.9L102.3 374.1L104.5 381.2L106.7 363.9L108.9 352.5L111.1 342.5L113.2 340.1L115.4 326.2L117.6 326.2L119.8 322.4L122 328.6L124.2 326.2L126.3 326.2L128.5 326.2L130.7 337.8L132.9 348.6L135.1 348.6L137.3 335L139.4 337.8L141.6 345.9L143.8 340.1L146 345.9L148.2 342.5L150.4 342.5L152.5 345.9L154.7 348.6L156.9 352.5L159.1 363.9L161.3 360.2L163.5 360.2L165.7 363.9L167.8 387.3L170 405.8L172.2 396.9L174.4 405.8L176.6 421.1L178.8 396.9L180.9 405.8L183.1 396.9L185.3 387.3L187.5 381.2L189.7 369.5L191.9 363.9L194 374.1L196.2 369.5L198.4 363.9L200.6 363.9L202.8 355.6L205 363.9L207.1 369.5L209.3 363.9L211.5 355.6L213.7 355.6L215.9 355.6L218.1 363.9L220.2 352.5L222.4 352.5L224.6 352.5L226.8 348.6L229 348.6L231.2 340.1L233.4 335L235.5 335L237.7 322.4L239.9 314.2L242.1 312.5L244.3 304.8L246.5 305.8L248.6 303.4L250.8 300L253 302.3L255.2 303.4L257.4 297.8L259.6 295.7L261.7 289.2L263.9 278.2L266.1 268.9L268.3 263.1L270.5 259.2L272.7 249.8L274.8 243.6L277 239.2L279.2 238.6L281.4 235L283.6 231L285.8 225.2L287.9 221.1L290.1 215.5L292.3 212L294.5 206.2L296.7 202.5L298.9 196.1L301.1 192.8L303.2 189.2L305.4 186.5L307.6 184.4L309.8 182.4L312 180.9L314.2 178.9L316.3 175L318.5 174L320.7 173.4L322.9 172.3L325.1 171L327.3 169.2L329.4 169L331.6 170.3L333.8 169.9L336 169.4L338.2 168.7L340.4 167.8L342.5 168.6L344.7 169L346.9 170.6L349.1 171.3L351.3 172L353.5 171.6L355.6 173.1L357.8 173.6L360 174.5L362.2 173.4L364.4 174.8L366.6 175.2L368.8 176.1L370.9 177.1L373.1 176.7L375.3 177.5L377.5 177.8L379.7 178L381.9 178.9L384 178.3L386.2 178.7L388.4 180.6L390.6 181.5L392.8 183.2L395 183.9L397.1 185.3L399.3 188.1L401.5 187.5L403.7 186.6L405.9 186.7L408.1 186.3L410.2 185.4L412.4 183.7L414.6 183.1L416.8 184.6L419 186.4L421.2 187.7L423.3 188.3L425.5 188.1L427.7 188.8L429.9 186.7L432.1 185.4L434.3 182.9L436.5 180.1L438.6 179.5L440.8 180L443 180L445.2 180.2L447.4 180.6L449.6 181.7L451.7 183L453.9 183.1L456.1 182.5L458.3 183.1L460.5 183.8L462.7 183.4L464.8 182.9L467 182.7L469.2 181.9L471.4 183.1L473.6 181.2L475.8 181.7L477.9 182.8L480.1 183.1L482.3 182.4L484.5 183.8L486.7 184.1L488.9 185.6L491 186.1L493.2 185L495.4 184.4L497.6 184.2L499.8 183.4L502 181.5L504.2 182.2L506.3 182.4L508.5 184.4L510.7 185.3L512.9 188.9L515.1 189.7L517.3 191.2L519.4 192.2L521.6 193L523.8 191.7L526 193L528.2 192.5L530.4 192.6L532.5 194.7L534.7 195L536.9 194.7L539.1 195L541.3 193.5L543.5 190.4L545.6 192L547.8 191.3L550 190.3L552.2 190.8L554.4 191.7L556.6 194.1L558.7 195.7L560.9 195.2L563.1 195.1L565.3 195.8L567.5 195.4L569.7 196.4L571.9 196.3L574 198.4L576.2 199.4L578.4 199.5L580.6 199.7L582.8 201.6L585 201.1L587.1 201.8L589.3 202.1L591.5 202.2L593.7 203.2L595.9 203L598.1 202.6L600.2 202.9L602.4 201.1L604.6 200.8L606.8 198.1L609 199.2L611.2 200.7L613.3 200.4L615.5 200.3L617.7 201.6L619.9 201.2L622.1 203.9L624.3 203.4L626.5 203L628.6 204.5L630.8 206.2L633 207.2L635.2 208.8L637.4 208.7L639.6 208.8L641.7 211L643.9 211.6L646.1 212.4L648.3 210.5L650.5 210.5L652.7 211.6L654.8 213.1L657 214.6L659.2 215.3L661.4 213.1L663.6 216.7L665.8 220.1L667.9 223.3L670.1 225.2L672.3 225.8L674.5 227.2L676.7 234.8L678.9 237.5L681 236.4L683.2 237.2L685.4 239.6L687.6 241.7L689.8 242.9L692 244.9L694.2 245.6L696.3 249.5L698.5 250.5L700.7 252.9L702.9 251.7L705.1 256.2L707.3 254.5L709.4 258.9L711.6 262.1L713.8 266.7L716 265.6L718.2 267.8L720.4 268.9L722.5 272.4L724.7 274.9L726.9 276.3L729.1 276.3L731.3 281.1L733.5 287.5L735.6 288.2L737.8 285.8L740 284.9L742.2 285.8L744.4 288.2" fill="none" stroke-width="1"></path></g><g><path stroke-linecap="round" stroke-linejoin="round" stroke="#ddd" d="M60.8 330.4L63 313.4L65.2 293.7L67.4 279L69.6 264.4L71.7 251L73.9 244.2L76.1 221.9L78.3 212.2L80.5 198.8L82.7 186.6L84.8 178.1L87 168.6L89.2 163L91.4 154.9L93.6 147.6L95.8 143L98 136.7L100.1 131.9L102.3 125.2L104.5 116L106.7 112.3L108.9 109.3L111.1 104.9L113.2 102.7L115.4 99.9L117.6 97.3L119.8 96.4L122 95.5L124.2 93.7L126.3 92.9L128.5 92.6L130.7 92.2L132.9 93.4L135.1 95.2L137.3 97.2L139.4 98.8L141.6 101L143.8 102.8L146 104.4L148.2 106.5L150.4 107.2L152.5 108.2L154.7 109L156.9 109.1L159.1 108.6L161.3 109.6L163.5 109.6L165.7 111.2L167.8 111.2L170 112.6L172.2 113.4L174.4 115.2L176.6 116.1L178.8 118.2L180.9 119.2L183.1 121.7L185.3 123.6L187.5 126.1L189.7 128.1L191.9 131.3L194 134.3L196.2 133.1L198.4 134.8L200.6 137.7L202.8 141L205 139.9L207.1 140.2L209.3 140.8L211.5 147.8L213.7 148.1L215.9 148.5L218.1 150.3L220.2 155.6L222.4 155.9L224.6 156L226.8 157.3L229 158L231.2 160.8L233.4 161.2L235.5 162.4L237.7 166.5L239.9 171.4L242.1 172.9L244.3 177.6L246.5 178L248.6 182.6L250.8 185.2L253 190.9L255.2 194L257.4 194.6L259.6 192.7L261.7 195.1L263.9 196.9L266.1 200.7L268.3 199.2L270.5 199.3L272.7 202.7L274.8 204.8L277 204.3L279.2 202.1L281.4 202.1L283.6 205.3L285.8 208.2L287.9 207.6L290.1 208.5L292.3 212.7L294.5 218L296.7 221.7L298.9 219.9L301.1 221.1L303.2 225.2L305.4 228.3L307.6 228.7L309.8 231.4L312 246L314.2 254.2L316.3 259.1L318.5 274L320.7 274.9L322.9 283L325.1 280.5L327.3 260L329.4 261.4L331.6 266.5L333.8 262L336 267.3L338.2 266.5L340.4 264.1L342.5 266.2L344.7 273.1L346.9 274.6L349.1 281.1L351.3 280L353.5 277.6L355.6 284.2L357.8 285.3L360 281.1L362.2 281.5L364.4 278L366.6 281.1L368.8 281.1L370.9 282L373.1 284.2L375.3 290L377.5 293.7L379.7 300L381.9 298.4L384 304.8L386.2 308.5L388.4 311.3L390.6 318.4L392.8 314.2L395 314.2L397.1 311.3L399.3 304.8L401.5 310L403.7 306.6L405.9 304.1L408.1 309.3L410.2 302.3L412.4 307.3L414.6 315.1L416.8 314.2L419 314.2L421.2 314.2L423.3 314.2L425.5 247.7L427.7 247.2L429.9 247.2L432.1 247.4L434.3 248.1L436.5 248.1L438.6 246.7L440.8 320.8L443 317.4L445.2 317.4L447.4 318.4L449.6 312.1L451.7 313.4L453.9 313.4L456.1 315.1L458.3 318.4L460.5 316.5L462.7 312.1L464.8 319.8L467 314.2L469.2 312.1L471.4 299.4L473.6 297.2L475.8 292.9L477.9 291.8L480.1 287L482.3 287L484.5 287.5L486.7 293.7L488.9 293.7L491 292.4L493.2 292.9L495.4 294.3L497.6 292.4L499.8 292.4L502 282L504.2 278L506.3 276.6L508.5 274.6L510.7 271.2L512.9 267.3L515.1 263.7L517.3 266.2L519.4 265.4L521.6 265.7L523.8 262.4L526 262.7L528.2 262.4L530.4 261.4L532.5 258.2L534.7 258L536.9 258L539.1 256.7L541.3 253.3L543.5 253.9L545.6 252.5L547.8 252L550 249.9L552.2 244.4L554.4 241.6L556.6 239.1L558.7 228.3L560.9 224.2L563.1 221.7L565.3 216.2L567.5 212.2L569.7 207.2L571.9 199.5L574 195.3L576.2 192.6L578.4 185.6L580.6 182.1L582.8 178.4L585 171.9L587.1 168.4L589.3 165.1L591.5 161L593.7 156L595.9 153.5L598.1 150.8L600.2 147.1L602.4 143.3L604.6 138.4L606.8 133.3L609 130.8L611.2 128.6L613.3 126.5L615.5 122.8L617.7 118.7L619.9 115.8L622.1 114.4L624.3 112.9L626.5 110.3L628.6 108.6L630.8 106.9L633 105.4L635.2 105.3L637.4 103.7L639.6 102.2L641.7 102L643.9 100.8L646.1 99.6L648.3 99.9L650.5 98.4L652.7 97.2L654.8 97.3L657 97.4L659.2 97.1L661.4 97.7L663.6 98L665.8 96.5L667.9 96.6L670.1 96.8L672.3 96.6L674.5 97.9L676.7 99.3L678.9 101.1L681 102.1L683.2 102.6L685.4 102.8L687.6 103.6L689.8 104L692 101.8L694.2 100.1L696.3 102L698.5 102.9L700.7 103.9L702.9 105.3L705.1 106.1L707.3 108.5L709.4 110L711.6 112.2L713.8 114.9L716 118.9L718.2 119.6L720.4 119.2L722.5 118.7L724.7 118.4L726.9 117.7L729.1 117.7L731.3 116.3L733.5 115.7L735.6 117L737.8 117.1L740 117.5L742.2 119.5L744.4 117.3" fill="none" stroke-width="1"></path></g><g><path stroke-linecap="round" stroke-linejoin="round" stroke="#ddd" d="M60.8 355.6L63 368L65.2 374.1L67.4 377.5L69.6 375.8L71.7 379.3L73.9 383.1L76.1 385.1L78.3 387.3L80.5 391.8L82.7 394.3L84.8 402.6L87 409.1L89.2 412.8L91.4 421.1L93.6 425.9L95.8 425.9L98 431.3L100.1 431.3L102.3 437.4L104.5 437.4L106.7 437.4L108.9 444.4L111.1 452.7L113.2 462.9L115.4 462.9L117.6 462.9L119.8 462.9L122 476.1L124.2 476.1L126.3 476.1L128.5 476.1L130.7 476.1L132.9 476.1L135.1 476.1L137.3 476.1L139.4 476.1L141.6 476.1L143.8 494.6L146 494.6L148.2 526.2L150.4 526.2L152.5 526.2L154.7 526.2L156.9 526.2L159.1 526.2L161.3 526.2L163.5 304.8L165.7 304.8L167.8 304.8L170 304.8L172.2 304.8L174.4 304.8L176.6 304.8" fill="none" stroke-width="1"></path></g><g><path stroke="#6D3E91" stroke-linecap="round" stroke-linejoin="round" d="M106.7 526.2L108.9 526.2L111.1 526.2L113.2 526.2L115.4 494.6L117.6 494.6L119.8 494.6L122 494.6L124.2 494.6L126.3 476.1L128.5 452.7L130.7 452.7L132.9 452.7L135.1 444.4L137.3 437.4L139.4 416.8L141.6 412.8L143.8 412.8L146 399.7L148.2 394.3L150.4 387.3L152.5 381.2L154.7 383.1L156.9 379.3L159.1 383.1L161.3 383.1L163.5 379.3L165.7 381.2L167.8 383.1L170 381.2L172.2 377.5L174.4 374.1L176.6 374.1L178.8 371L180.9 369.5L183.1 366.6L185.3 362.7L187.5 361.4L189.7 356.7L191.9 353.5L194 352.5L196.2 346.8L198.4 345.9L200.6 336.4L202.8 332.3L205 331L207.1 329.2L209.3 327.4L211.5 326.2L213.7 324L215.9 329.2L218.1 329.8L220.2 326.8L222.4 327.4L224.6 326.8L226.8 326.8L229 324.5L231.2 321.9L233.4 320.3L235.5 320.3L237.7 317.9L239.9 316L242.1 315.1L244.3 315.1L246.5 314.2L248.6 312.9L250.8 310.5L253 309.3L255.2 304.4L257.4 302.3L259.6 300L261.7 298.4L263.9 296.9L266.1 294.9L268.3 292.1L270.5 291.5L272.7 289L274.8 288.2L277 286.5L279.2 285.1L281.4 283L283.6 280.3L285.8 278.2L287.9 277.8L290.1 276.6L292.3 274.4L294.5 249.9L296.7 250.1L298.9 250.8L301.1 250.9L303.2 251L305.4 249.7L307.6 250.4L309.8 271.7L312 270.4L314.2 269L316.3 268.9L318.5 267.3L320.7 268.2L322.9 266.7L325.1 265.9L327.3 265.7L329.4 266L331.6 265.3L333.8 262.2L336 261.5L338.2 260.9L340.4 261.3L342.5 260.4L344.7 259.1L346.9 258.1L349.1 259L351.3 258L353.5 256.8L355.6 255.6L357.8 254.2L360 251.6L362.2 250L364.4 250L366.6 248.1L368.8 247.8L370.9 247.1L373.1 241.9L375.3 241.4L377.5 240.7L379.7 239.2L381.9 239L384 238.6L386.2 237.4L388.4 240.6L390.6 240.4L392.8 240.1L395 238.7L397.1 238.2L399.3 236.8L401.5 236.3L403.7 235.1L405.9 234.1L408.1 233.1L410.2 233L412.4 231.2L414.6 230.7L416.8 231L419 230.7L421.2 229.8L423.3 229.4L425.5 228.7L427.7 229.2L429.9 229.2L432.1 227.4L434.3 227.2L436.5 227.4L438.6 227.7L440.8 227.9L443 228.6L445.2 228.8L447.4 229.7L449.6 228.7L451.7 228.2L453.9 227.7L456.1 227.5L458.3 226.6L460.5 226.8L462.7 226.3L464.8 226.7L467 226.4L469.2 226L471.4 225.2L473.6 225L475.8 223L477.9 222.6L480.1 221.8L482.3 221.1L484.5 220.5L486.7 220.2L488.9 219.6L491 220L493.2 219L495.4 219.2L497.6 219.4L499.8 219.2L502 219.1L504.2 219.1L506.3 219.1L508.5 220.3L510.7 220.3L512.9 220.4L515.1 221.4L517.3 221.4L519.4 222L521.6 223.6L523.8 223.1L526 222.8L528.2 223.1L530.4 223.2L532.5 224.3L534.7 225.2L536.9 224.5L539.1 225.7L541.3 227.1L543.5 227.9L545.6 228.9L547.8 229.1L550 229.7L552.2 231L554.4 232.9L556.6 235.2L558.7 235.7L560.9 236.4L563.1 235.5L565.3 237.4L567.5 238.4L569.7 238.6L571.9 238.3L574 240.2L576.2 241.9L578.4 246.2L580.6 247.2L582.8 248.3L585 250.5L587.1 252.6L589.3 254.2L591.5 255.3L593.7 256.7L595.9 256.6L598.1 256.4L600.2 256.4L602.4 254.2L604.6 252.9L606.8 252.5L609 251.5L611.2 251.5L613.3 252.1L615.5 252.1L617.7 253.9L619.9 255.3L622.1 256.1L624.3 257.6L626.5 258.2L628.6 258.2L630.8 258.7L633 258.3L635.2 257.8L637.4 257.2L639.6 256.6L641.7 255.6L643.9 255.2L646.1 255.1L648.3 255.8L650.5 257.1L652.7 258.1L654.8 258.1L657 259L659.2 259L661.4 258.7L663.6 258.7L665.8 258.1L667.9 257.7L670.1 258L672.3 258.6L674.5 259.9L676.7 261.3L678.9 262.9L681 264.8L683.2 265.9L685.4 267.3L687.6 268.2L689.8 268.7L692 268.9L694.2 269.9L696.3 271.2L698.5 273L700.7 273.8L702.9 273.8L705.1 274.9L707.3 275.9L709.4 276.8L711.6 276.8L713.8 278.8L716 280L718.2 281.3L720.4 282.4L722.5 283.3L724.7 283.7L726.9 285.6L729.1 280.5L731.3 287.7L733.5 289.5L735.6 290.8L737.8 291.3L740 293.5L742.2 294L744.4 310.9" fill="none" stroke-width="1.5"></path></g><g><path stroke="#00823F" stroke-linecap="round" stroke-linejoin="round" d="M95.8 494.6L98 494.6L100.1 452.7L102.3 437.4L104.5 402.6L106.7 347.7L108.9 337.8L111.1 331L113.2 317.4L115.4 307.3L117.6 298.1L119.8 292.9L122 291.8L124.2 280L126.3 268.1L128.5 256.8L130.7 245.2L132.9 237.5L135.1 229.9L137.3 224.4L139.4 220.7L141.6 217.9L143.8 215.8L146 214.4L148.2 212.1L150.4 210.6L152.5 208.8L154.7 207.1L156.9 205L159.1 203.2L161.3 201.3L163.5 199.6L165.7 198.1L167.8 196.4L170 195L172.2 194.4L174.4 194.3L176.6 194.8L178.8 195.7L180.9 196.5L183.1 198.1L185.3 199.8L187.5 201.5L189.7 203.2L191.9 204.7L194 206.4L196.2 208.4L198.4 211.2L200.6 213.7L202.8 216.4L205 218.6L207.1 222.1L209.3 225.7L211.5 228.7L213.7 230.4L215.9 231.5L218.1 232.2L220.2 232.9L222.4 233.1L224.6 233.1L226.8 234.3L229 234.6L231.2 237.9L233.4 241.5L235.5 247L237.7 252L239.9 256.2L242.1 258.1L244.3 260.7L246.5 261.1L248.6 261.1L250.8 258.7L253 258.1L255.2 257.8L257.4 259.1L259.6 260.7L261.7 262.1L263.9 263.5L266.1 266L268.3 268.4L270.5 271.2L272.7 272.6L274.8 273.3L277 274.4L279.2 275.7L281.4 278L283.6 279.4L285.8 280.5L287.9 282.8L290.1 286L292.3 286.3L294.5 286.7L296.7 286L298.9 284.4L301.1 281.5L303.2 278.6L305.4 276.1L307.6 274.2L309.8 271.2L312 269.9L314.2 269.9L316.3 270.9L318.5 272.4L320.7 274.8L322.9 276.6L325.1 280.5L327.3 282.2L329.4 283.7L331.6 283.7L333.8 282.6L336 281.1L338.2 281.7L340.4 280.7L342.5 279.6L344.7 279.4L346.9 278L349.1 277.6L351.3 277.6L353.5 276.6L355.6 276.3L357.8 278L360 277L362.2 278.6L364.4 280L366.6 281.1L368.8 281.7L370.9 282.6L373.1 281.7L375.3 282.8L377.5 283.3L379.7 283.7L381.9 283.3L384 283.3L386.2 284.4L388.4 286.3L390.6 287.7L392.8 287.7L395 286.3L397.1 286L399.3 285.1L401.5 283.9L403.7 282.2L405.9 282.6L408.1 283.3L410.2 284.4L412.4 285.6L414.6 287.7L416.8 289L419 289.2L421.2 286.3L423.3 283.7L425.5 281.7L427.7 280.5L429.9 277.6L432.1 276.1L434.3 274.4L436.5 275.1L438.6 275.1L440.8 274.8L443 274.8L445.2 276.1L447.4 274.8L449.6 275.7L451.7 273.5L453.9 269.5L456.1 265L458.3 259.6L460.5 254.2L462.7 249.8L464.8 245.5L467 241.9L469.2 239.4L471.4 237.1L473.6 235.6L475.8 233.9L477.9 233.3L480.1 232L482.3 231L484.5 230.6L486.7 231.5L488.9 231.1L491 230.4L493.2 228.6L495.4 227.7L497.6 226.8L499.8 226.2L502 224.1L504.2 223.7L506.3 223.2L508.5 223.4L510.7 222.5L512.9 221.7L515.1 220.7L517.3 220.4L519.4 219.7L521.6 220L523.8 219.7L526 220.4L528.2 221.1L530.4 222.1L532.5 223.2L534.7 224.3L536.9 225.2L539.1 226.5L541.3 227.5L543.5 228.5L545.6 229.4L547.8 229.8L550 229.6L552.2 229.4L554.4 228.6L556.6 228.5L558.7 227.6L560.9 225.7L563.1 224.1L565.3 222.8L567.5 221.1L569.7 220L571.9 219L574 218.5L576.2 218.5L578.4 218.6L580.6 218.6L582.8 218.6L585 218.5L587.1 217.7L589.3 217.6L591.5 217.2L593.7 216.7L595.9 216.5L598.1 216.4L600.2 216.2L602.4 216.2L604.6 215.4L606.8 214.9L609 214.5L611.2 213.7L613.3 212.9L615.5 212.3L617.7 211.6L619.9 211L622.1 210.3L624.3 209.5L626.5 209.1L628.6 208.4L630.8 207.3L633 205.2L635.2 202.9L637.4 199.9L639.6 197.4L641.7 194.6L643.9 191.6L646.1 188.8L648.3 186.4L650.5 184.1L652.7 182.6L654.8 180.7L657 178.9L659.2 177.6L661.4 176.6L663.6 175.7L665.8 175.2L667.9 174.7L670.1 174.2L672.3 173.9L674.5 173.3L676.7 172.6L678.9 171.9L681 170.8L683.2 169.8L685.4 168.9L687.6 168.3L689.8 167.5L692 166.8L694.2 166.1L696.3 165.4L698.5 164.9L700.7 164.4L702.9 163.6L705.1 162.9L707.3 162.5L709.4 162L711.6 161.7L713.8 161.4L716 161.1L718.2 160.9L720.4 160.9L722.5 160.8L724.7 160.9L726.9 161.3L729.1 162.5L731.3 163.8L733.5 165.5L735.6 167.3L737.8 169L740 171L742.2 172.5L744.4 173.3" fill="none" stroke-width="1.5"></path></g><g><path stroke="#00847E" stroke-linecap="round" stroke-linejoin="round" d="M78.3 476.1L80.5 476.1L82.7 452.7L84.8 452.7L87 412.8L89.2 402.6L91.4 391.8L93.6 377.5L95.8 361.4L98 354.5L100.1 332.3L102.3 315.1L104.5 304.8L106.7 300.3L108.9 289.2L111.1 278.8L113.2 265.4L115.4 255.1L117.6 245.6L119.8 234.7L122 224.3L124.2 216.3L126.3 208.6L128.5 202L130.7 194.6L132.9 189.8L135.1 186.2L137.3 184.4L139.4 179.7L141.6 176.8L143.8 170.4L146 168.2L148.2 168.4L150.4 175L152.5 170.1L154.7 171.8L156.9 175.5L159.1 169.5L161.3 169.9L163.5 165.6L165.7 161.8L167.8 166.2L170 163.3L172.2 161.4L174.4 168.9L176.6 167.5L178.8 171L180.9 170.7L183.1 171.6L185.3 176L187.5 175.4L189.7 178.8L191.9 184.5L194 187.8L196.2 189.7L198.4 192L200.6 193.2L202.8 204.3L205 196.4L207.1 198.7L209.3 198.3L211.5 200.6L213.7 202.7L215.9 205.1L218.1 200.1L220.2 211L222.4 219L224.6 230L226.8 229.8L229 229.3L231.2 235.6L233.4 235.5L235.5 244.3L237.7 238.8L239.9 237.1L242.1 238.2L244.3 238.5L246.5 240.7L248.6 243L250.8 244.1L253 246.9L255.2 245.4L257.4 246.6L259.6 248.6L261.7 250.6L263.9 262.2L266.1 266.5L268.3 268.9L270.5 272.1L272.7 275.5L274.8 274.8L277 276.5L279.2 266.7L281.4 273.3L283.6 277.4L285.8 281.5L287.9 283.5L290.1 284.9L292.3 286.5L294.5 299.7L296.7 292.1L298.9 290.5L301.1 290L303.2 290.8L305.4 294.6L307.6 295.4L309.8 294.6L312 303.7L314.2 311.3L316.3 303L318.5 306.2L320.7 306.2L322.9 303.7L325.1 304.4L327.3 310L329.4 310.9L331.6 328L333.8 321.3L336 318.9L338.2 327.4L340.4 331L342.5 322.4L344.7 322.4L346.9 320.8L349.1 323.4L351.3 325.1L353.5 321.3L355.6 327.4L357.8 340.9L360 346.8L362.2 354.5L364.4 362.7L366.6 362.7L368.8 365.3L370.9 362.7L373.1 361.4L375.3 359L377.5 344.2L379.7 342.5L381.9 344.2L384 345L386.2 344.2L388.4 342.5L390.6 340.9L392.8 351.5L395 346.8L397.1 346.8L399.3 348.6L401.5 344.2L403.7 329.2L405.9 337.1L408.1 325.1L410.2 326.2L412.4 325.1L414.6 324.5L416.8 328L419 340.9L421.2 338.6L423.3 339.3L425.5 340.9L427.7 342.5L429.9 342.5L432.1 342.5L434.3 338.6L436.5 327.4L438.6 338.6L440.8 337.1L443 333.6L445.2 333.6L447.4 333.6L449.6 338.6L451.7 351.5L453.9 356.7L456.1 351.5L458.3 354.5L460.5 351.5L462.7 353.5L464.8 337.1L467 344.2L469.2 337.1L471.4 346.8L473.6 346.8L475.8 349.5L477.9 348.6L480.1 365.3L482.3 359L484.5 362.7L486.7 359L488.9 356.7L491 354.5L493.2 345L495.4 345L497.6 345L499.8 335.7L502 338.6L504.2 338.6L506.3 340.9L508.5 335.7L510.7 323.4L512.9 315.1L515.1 311.3L517.3 307.3L519.4 305.5L521.6 303L523.8 303L526 306.6L528.2 306.2L530.4 310L532.5 306.6L534.7 308.9L536.9 298.8L539.1 300.3L541.3 298.1L543.5 299.1L545.6 301.3L547.8 296.9L550 295.2L552.2 298.8L554.4 284.9L556.6 278.4L558.7 274.8L560.9 266.5L563.1 268.9L565.3 267L567.5 259.6L569.7 260L571.9 261.3L574 255.6L576.2 259L578.4 249.9L580.6 247.4L582.8 250.1L585 252L587.1 240.5L589.3 235.3L591.5 227L593.7 223.3L595.9 223L598.1 211.7L600.2 210.3L602.4 200.9L604.6 196.5L606.8 194.1L609 195.6L611.2 193.6L613.3 200.5L615.5 183.8L617.7 184.7L619.9 182.1L622.1 179.7L624.3 178.1L626.5 178.3L628.6 170.5L630.8 172.7L633 171.4L635.2 169.8L637.4 167.7L639.6 166.7L641.7 165.6L643.9 164.4L646.1 162.6L648.3 159.3L650.5 155.5L652.7 152.9L654.8 152.4L657 151.8L659.2 150L661.4 147.8L663.6 145.8L665.8 145.6L667.9 143.6L670.1 142L672.3 141.6L674.5 140.7L676.7 139.3L678.9 139.7L681 137L683.2 136.7L685.4 135.6L687.6 134.8L689.8 133.6L692 128.9L694.2 125.6L696.3 123.8L698.5 121.3L700.7 120.4L702.9 120.2L705.1 118.3L707.3 117.5L709.4 116.7L711.6 120.1L713.8 125.4L716 126L718.2 124.6L720.4 123L722.5 121.5L724.7 119.9L726.9 118.4L729.1 117.4L731.3 117.7L733.5 118.1L735.6 117L737.8 118.1L740 117L742.2 111.4L744.4 105.8" fill="none" stroke-width="1.5"></path></g><g><path stroke="#3C4E66" stroke-linecap="round" stroke-linejoin="round" d="M78.3 462.9L80.5 462.9L82.7 462.9L84.8 462.9L87 462.9L89.2 462.9L91.4 462.9L93.6 416.8L95.8 391.8L98 360.2L100.1 360.2L102.3 345L104.5 333.6L106.7 326.8L108.9 318.9L111.1 315.6L113.2 309.3L115.4 291L117.6 286.5L119.8 276.8L122 269.4L124.2 257.6L126.3 247.7L128.5 242.7L130.7 232.2L132.9 221.6L135.1 209L137.3 200L139.4 193L141.6 189.2L143.8 184.8L146 178.1L148.2 174.7L150.4 172L152.5 169.5L154.7 166.5L156.9 161.9L159.1 157.1L161.3 153.1L163.5 151.7L165.7 150.5L167.8 148.4L170 147.7L172.2 145.3L174.4 143.7L176.6 144.9L178.8 142.8L180.9 141.1L183.1 141.2L185.3 139.8L187.5 139.6L189.7 137.9L191.9 137.6L194 136.9L196.2 138.2L198.4 138.8L200.6 136.8L202.8 137.7L205 140.8L207.1 142L209.3 143.9L211.5 143.2L213.7 144.1L215.9 148.6L218.1 149.4L220.2 152L222.4 153.2L224.6 154.8L226.8 157.1L229 158.6L231.2 160.9L233.4 165.5L235.5 164.3L237.7 165.9L239.9 167.4L242.1 169.1L244.3 169.2L246.5 169.1L248.6 167.9L250.8 169.8L253 168.8L255.2 170L257.4 172.5L259.6 175.4L261.7 179.4L263.9 182.6L266.1 186.4L268.3 191.4L270.5 196.1L272.7 195.8L274.8 196.8L277 197.1L279.2 200L281.4 202.6L283.6 207.6L285.8 209.3L287.9 215.3L290.1 219.7L292.3 227.9L294.5 230.4L296.7 234.3L298.9 239.7L301.1 241L303.2 240.6L305.4 241.3L307.6 237.5L309.8 237.5L312 234.8L314.2 232L316.3 237.2L318.5 243.7L320.7 246.2L322.9 246.6L325.1 251.3L327.3 260.4L329.4 264.2L331.6 264.2L333.8 264.7L336 269.4L338.2 273.3L340.4 276.8L342.5 275.3L344.7 279.8L346.9 274.6L349.1 278.2L351.3 276.1L353.5 279.8L355.6 281.3L357.8 279.8L360 278.2L362.2 281.3L364.4 281.3L366.6 282.2L368.8 285.6L370.9 283.7L373.1 293.2L375.3 297.5L377.5 304.8L379.7 303.7L381.9 303.7L384 293.2L386.2 290.2L388.4 289.2L390.6 284.6L392.8 283L395 283L397.1 283.7L399.3 293.2L401.5 295.2L403.7 294.3L405.9 302.3L408.1 303.7L410.2 303.7L412.4 303.7L414.6 298.8L416.8 301L419 302.3L421.2 302.3L423.3 303.7L425.5 301L427.7 298.8L429.9 304.8L432.1 299.7L434.3 298.8L436.5 302.3L438.6 291L440.8 296.3L443 297.5L445.2 291L447.4 296.3L449.6 297.5L451.7 296.3L453.9 297.5L456.1 295.2L458.3 298.8L460.5 298.8L462.7 299.7L464.8 303.7L467 301L469.2 318.9L471.4 322.9L473.6 320.8L475.8 331.7L477.9 324.5L480.1 320.8L482.3 317L484.5 318.9L486.7 317L488.9 315.6L491 301L493.2 299.7L495.4 298.8L497.6 302.3L499.8 289.2L502 284.6L504.2 285.6L506.3 286.5L508.5 285.6L510.7 283L512.9 280.5L515.1 284.6L517.3 285.6L519.4 283L521.6 279L523.8 276.1L526 269.4L528.2 264.7L530.4 230.7L532.5 226.8L534.7 218.3L536.9 215.9L539.1 214.9L541.3 214.8L543.5 214.4L545.6 233.4L547.8 232L550 241L552.2 247L554.4 241.9L556.6 240L558.7 239.7L560.9 234.3L563.1 239.7L565.3 236.6L567.5 231.2L569.7 235.1L571.9 231.7L574 228.6L576.2 229.9L578.4 226.4L580.6 224.7L582.8 223.1L585 221.6L587.1 221.4L589.3 220.7L591.5 217.1L593.7 213.9L595.9 212.8L598.1 213.9L600.2 208.2L602.4 207.7L604.6 206.8L606.8 204.2L609 203L611.2 201.5L613.3 197.6L615.5 196.5L617.7 193.8L619.9 190.1L622.1 191.8L624.3 190.2L626.5 188.4L628.6 187L630.8 186.9L633 183L635.2 183.2L637.4 181.3L639.6 181L641.7 181.8L643.9 181.3L646.1 178.5L648.3 182.6L650.5 181.5L652.7 179.8L654.8 179.7L657 178.1L659.2 175.7L661.4 177.5L663.6 173.7L665.8 173.1L667.9 171.8L670.1 171.4L672.3 170.6L674.5 169.8L676.7 168.5L678.9 167.8L681 166L683.2 164.4L685.4 162.9L687.6 163L689.8 161.9L692 160.8L694.2 160.7L696.3 158.6L698.5 159.4L700.7 159L702.9 158.7L705.1 160.5L707.3 160L709.4 158.5L711.6 158.8L713.8 161.6L716 162.7L718.2 160.9L720.4 158.2L722.5 154.3L724.7 155.5L726.9 157.5L729.1 158.6L731.3 157.3L733.5 158.8L735.6 154.4L737.8 157.4L740 156L742.2 153.3L744.4 148.8" fill="none" stroke-width="1.5"></path></g><g><path stroke="#D73C50" stroke-linecap="round" stroke-linejoin="round" d="M67.4 437.4L69.6 437.4L71.7 421.1L73.9 405.8L76.1 387.3L78.3 387.3L80.5 381.2L82.7 396.9L84.8 387.3L87 387.3L89.2 387.3L91.4 405.8L93.6 405.8L95.8 405.8L98 396.9L100.1 396.9L102.3 374.1L104.5 381.2L106.7 363.9L108.9 352.5L111.1 342.5L113.2 340.1L115.4 326.2L117.6 326.2L119.8 322.4L122 328.6L124.2 326.2L126.3 326.2L128.5 326.2L130.7 337.8L132.9 348.6L135.1 348.6L137.3 335L139.4 337.8L141.6 345.9L143.8 340.1L146 345.9L148.2 342.5L150.4 342.5L152.5 345.9L154.7 348.6L156.9 352.5L159.1 363.9L161.3 360.2L163.5 360.2L165.7 363.9L167.8 387.3L170 405.8L172.2 396.9L174.4 405.8L176.6 421.1L178.8 396.9L180.9 405.8L183.1 396.9L185.3 387.3L187.5 381.2L189.7 369.5L191.9 363.9L194 374.1L196.2 369.5L198.4 363.9L200.6 363.9L202.8 355.6L205 363.9L207.1 369.5L209.3 363.9L211.5 355.6L213.7 355.6L215.9 355.6L218.1 363.9L220.2 352.5L222.4 352.5L224.6 352.5L226.8 348.6L229 348.6L231.2 340.1L233.4 335L235.5 335L237.7 322.4L239.9 314.2L242.1 312.5L244.3 304.8L246.5 305.8L248.6 303.4L250.8 300L253 302.3L255.2 303.4L257.4 297.8L259.6 295.7L261.7 289.2L263.9 278.2L266.1 268.9L268.3 263.1L270.5 259.2L272.7 249.8L274.8 243.6L277 239.2L279.2 238.6L281.4 235L283.6 231L285.8 225.2L287.9 221.1L290.1 215.5L292.3 212L294.5 206.2L296.7 202.5L298.9 196.1L301.1 192.8L303.2 189.2L305.4 186.5L307.6 184.4L309.8 182.4L312 180.9L314.2 178.9L316.3 175L318.5 174L320.7 173.4L322.9 172.3L325.1 171L327.3 169.2L329.4 169L331.6 170.3L333.8 169.9L336 169.4L338.2 168.7L340.4 167.8L342.5 168.6L344.7 169L346.9 170.6L349.1 171.3L351.3 172L353.5 171.6L355.6 173.1L357.8 173.6L360 174.5L362.2 173.4L364.4 174.8L366.6 175.2L368.8 176.1L370.9 177.1L373.1 176.7L375.3 177.5L377.5 177.8L379.7 178L381.9 178.9L384 178.3L386.2 178.7L388.4 180.6L390.6 181.5L392.8 183.2L395 183.9L397.1 185.3L399.3 188.1L401.5 187.5L403.7 186.6L405.9 186.7L408.1 186.3L410.2 185.4L412.4 183.7L414.6 183.1L416.8 184.6L419 186.4L421.2 187.7L423.3 188.3L425.5 188.1L427.7 188.8L429.9 186.7L432.1 185.4L434.3 182.9L436.5 180.1L438.6 179.5L440.8 180L443 180L445.2 180.2L447.4 180.6L449.6 181.7L451.7 183L453.9 183.1L456.1 182.5L458.3 183.1L460.5 183.8L462.7 183.4L464.8 182.9L467 182.7L469.2 181.9L471.4 183.1L473.6 181.2L475.8 181.7L477.9 182.8L480.1 183.1L482.3 182.4L484.5 183.8L486.7 184.1L488.9 185.6L491 186.1L493.2 185L495.4 184.4L497.6 184.2L499.8 183.4L502 181.5L504.2 182.2L506.3 182.4L508.5 184.4L510.7 185.3L512.9 188.9L515.1 189.7L517.3 191.2L519.4 192.2L521.6 193L523.8 191.7L526 193L528.2 192.5L530.4 192.6L532.5 194.7L534.7 195L536.9 194.7L539.1 195L541.3 193.5L543.5 190.4L545.6 192L547.8 191.3L550 190.3L552.2 190.8L554.4 191.7L556.6 194.1L558.7 195.7L560.9 195.2L563.1 195.1L565.3 195.8L567.5 195.4L569.7 196.4L571.9 196.3L574 198.4L576.2 199.4L578.4 199.5L580.6 199.7L582.8 201.6L585 201.1L587.1 201.8L589.3 202.1L591.5 202.2L593.7 203.2L595.9 203L598.1 202.6L600.2 202.9L602.4 201.1L604.6 200.8L606.8 198.1L609 199.2L611.2 200.7L613.3 200.4L615.5 200.3L617.7 201.6L619.9 201.2L622.1 203.9L624.3 203.4L626.5 203L628.6 204.5L630.8 206.2L633 207.2L635.2 208.8L637.4 208.7L639.6 208.8L641.7 211L643.9 211.6L646.1 212.4L648.3 210.5L650.5 210.5L652.7 211.6L654.8 213.1L657 214.6L659.2 215.3L661.4 213.1L663.6 216.7L665.8 220.1L667.9 223.3L670.1 225.2L672.3 225.8L674.5 227.2L676.7 234.8L678.9 237.5L681 236.4L683.2 237.2L685.4 239.6L687.6 241.7L689.8 242.9L692 244.9L694.2 245.6L696.3 249.5L698.5 250.5L700.7 252.9L702.9 251.7L705.1 256.2L707.3 254.5L709.4 258.9L711.6 262.1L713.8 266.7L716 265.6L718.2 267.8L720.4 268.9L722.5 272.4L724.7 274.9L726.9 276.3L729.1 276.3L731.3 281.1L733.5 287.5L735.6 288.2L737.8 285.8L740 284.9L742.2 285.8L744.4 288.2" fill="none" stroke-width="1.5"></path></g><g><path stroke="#4C6A9C" stroke-linecap="round" stroke-linejoin="round" d="M60.8 330.4L63 313.4L65.2 293.7L67.4 279L69.6 264.4L71.7 251L73.9 244.2L76.1 221.9L78.3 212.2L80.5 198.8L82.7 186.6L84.8 178.1L87 168.6L89.2 163L91.4 154.9L93.6 147.6L95.8 143L98 136.7L100.1 131.9L102.3 125.2L104.5 116L106.7 112.3L108.9 109.3L111.1 104.9L113.2 102.7L115.4 99.9L117.6 97.3L119.8 96.4L122 95.5L124.2 93.7L126.3 92.9L128.5 92.6L130.7 92.2L132.9 93.4L135.1 95.2L137.3 97.2L139.4 98.8L141.6 101L143.8 102.8L146 104.4L148.2 106.5L150.4 107.2L152.5 108.2L154.7 109L156.9 109.1L159.1 108.6L161.3 109.6L163.5 109.6L165.7 111.2L167.8 111.2L170 112.6L172.2 113.4L174.4 115.2L176.6 116.1L178.8 118.2L180.9 119.2L183.1 121.7L185.3 123.6L187.5 126.1L189.7 128.1L191.9 131.3L194 134.3L196.2 133.1L198.4 134.8L200.6 137.7L202.8 141L205 139.9L207.1 140.2L209.3 140.8L211.5 147.8L213.7 148.1L215.9 148.5L218.1 150.3L220.2 155.6L222.4 155.9L224.6 156L226.8 157.3L229 158L231.2 160.8L233.4 161.2L235.5 162.4L237.7 166.5L239.9 171.4L242.1 172.9L244.3 177.6L246.5 178L248.6 182.6L250.8 185.2L253 190.9L255.2 194L257.4 194.6L259.6 192.7L261.7 195.1L263.9 196.9L266.1 200.7L268.3 199.2L270.5 199.3L272.7 202.7L274.8 204.8L277 204.3L279.2 202.1L281.4 202.1L283.6 205.3L285.8 208.2L287.9 207.6L290.1 208.5L292.3 212.7L294.5 218L296.7 221.7L298.9 219.9L301.1 221.1L303.2 225.2L305.4 228.3L307.6 228.7L309.8 231.4L312 246L314.2 254.2L316.3 259.1L318.5 274L320.7 274.9L322.9 283L325.1 280.5L327.3 260L329.4 261.4L331.6 266.5L333.8 262L336 267.3L338.2 266.5L340.4 264.1L342.5 266.2L344.7 273.1L346.9 274.6L349.1 281.1L351.3 280L353.5 277.6L355.6 284.2L357.8 285.3L360 281.1L362.2 281.5L364.4 278L366.6 281.1L368.8 281.1L370.9 282L373.1 284.2L375.3 290L377.5 293.7L379.7 300L381.9 298.4L384 304.8L386.2 308.5L388.4 311.3L390.6 318.4L392.8 314.2L395 314.2L397.1 311.3L399.3 304.8L401.5 310L403.7 306.6L405.9 304.1L408.1 309.3L410.2 302.3L412.4 307.3L414.6 315.1L416.8 314.2L419 314.2L421.2 314.2L423.3 314.2L425.5 247.7L427.7 247.2L429.9 247.2L432.1 247.4L434.3 248.1L436.5 248.1L438.6 246.7L440.8 320.8L443 317.4L445.2 317.4L447.4 318.4L449.6 312.1L451.7 313.4L453.9 313.4L456.1 315.1L458.3 318.4L460.5 316.5L462.7 312.1L464.8 319.8L467 314.2L469.2 312.1L471.4 299.4L473.6 297.2L475.8 292.9L477.9 291.8L480.1 287L482.3 287L484.5 287.5L486.7 293.7L488.9 293.7L491 292.4L493.2 292.9L495.4 294.3L497.6 292.4L499.8 292.4L502 282L504.2 278L506.3 276.6L508.5 274.6L510.7 271.2L512.9 267.3L515.1 263.7L517.3 266.2L519.4 265.4L521.6 265.7L523.8 262.4L526 262.7L528.2 262.4L530.4 261.4L532.5 258.2L534.7 258L536.9 258L539.1 256.7L541.3 253.3L543.5 253.9L545.6 252.5L547.8 252L550 249.9L552.2 244.4L554.4 241.6L556.6 239.1L558.7 228.3L560.9 224.2L563.1 221.7L565.3 216.2L567.5 212.2L569.7 207.2L571.9 199.5L574 195.3L576.2 192.6L578.4 185.6L580.6 182.1L582.8 178.4L585 171.9L587.1 168.4L589.3 165.1L591.5 161L593.7 156L595.9 153.5L598.1 150.8L600.2 147.1L602.4 143.3L604.6 138.4L606.8 133.3L609 130.8L611.2 128.6L613.3 126.5L615.5 122.8L617.7 118.7L619.9 115.8L622.1 114.4L624.3 112.9L626.5 110.3L628.6 108.6L630.8 106.9L633 105.4L635.2 105.3L637.4 103.7L639.6 102.2L641.7 102L643.9 100.8L646.1 99.6L648.3 99.9L650.5 98.4L652.7 97.2L654.8 97.3L657 97.4L659.2 97.1L661.4 97.7L663.6 98L665.8 96.5L667.9 96.6L670.1 96.8L672.3 96.6L674.5 97.9L676.7 99.3L678.9 101.1L681 102.1L683.2 102.6L685.4 102.8L687.6 103.6L689.8 104L692 101.8L694.2 100.1L696.3 102L698.5 102.9L700.7 103.9L702.9 105.3L705.1 106.1L707.3 108.5L709.4 110L711.6 112.2L713.8 114.9L716 118.9L718.2 119.6L720.4 119.2L722.5 118.7L724.7 118.4L726.9 117.7L729.1 117.7L731.3 116.3L733.5 115.7L735.6 117L737.8 117.1L740 117.5L742.2 119.5L744.4 117.3" fill="none" stroke-width="1.5"></path></g><g><path stroke="#C05917" stroke-linecap="round" stroke-linejoin="round" d="M60.8 355.6L63 368L65.2 374.1L67.4 377.5L69.6 375.8L71.7 379.3L73.9 383.1L76.1 385.1L78.3 387.3L80.5 391.8L82.7 394.3L84.8 402.6L87 409.1L89.2 412.8L91.4 421.1L93.6 425.9L95.8 425.9L98 431.3L100.1 431.3L102.3 437.4L104.5 437.4L106.7 437.4L108.9 444.4L111.1 452.7L113.2 462.9L115.4 462.9L117.6 462.9L119.8 462.9L122 476.1L124.2 476.1L126.3 476.1L128.5 476.1L130.7 476.1L132.9 476.1L135.1 476.1L137.3 476.1L139.4 476.1L141.6 476.1L143.8 494.6L146 494.6L148.2 526.2L150.4 526.2L152.5 526.2L154.7 526.2L156.9 526.2L159.1 526.2L161.3 526.2L163.5 304.8L165.7 304.8L167.8 304.8L170 304.8L172.2 304.8L174.4 304.8L176.6 304.8" fill="none" stroke-width="1.5"></path></g></g></g></g><g class="SourcesFooter" style="fill:#777"><g style="fill:#777"><text font-size="12.60" x="15.0" y="582.5"><tspan x="15" y="582.48">Source: Johns Hopkins University CSSE COVID-19 Data</tspan></text></g><text font-size="12.60" x="796.4" y="582.5"><tspan x="796.444" y="582.48"><a style="fill: #777;" class="cclogo" href="http://creativecommons.org/licenses/by/4.0/deed.en_US" target="_blank">CC BY</a></tspan></text></g></svg>